<svg width="53" height="52" viewBox="0 0 53 52" fill="none" xmlns="http://www.w3.org/2000/svg">
<path d="M49.7449 0H3.25508C1.45735 0 0 1.42985 0 3.19367V48.8063C0 50.5701 1.45735 52 3.25508 52H49.7449C51.5426 52 53 50.5701 53 48.8063V3.19367C53 1.42985 51.5426 0 49.7449 0Z" fill="#007BBA"/>
<path fill-rule="evenodd" clip-rule="evenodd" d="M7.11967 24.3317C7.12026 24.3842 7.11015 24.4363 7.08994 24.4849C7.06973 24.5335 7.03982 24.5777 7.00197 24.6149C6.96412 24.652 6.91909 24.6813 6.86953 24.7012C6.81996 24.721 6.76686 24.7309 6.71333 24.7303H4.88042C4.82689 24.7309 4.77379 24.721 4.72422 24.7012C4.67466 24.6813 4.62963 24.652 4.59178 24.6149C4.55393 24.5777 4.52402 24.5335 4.50381 24.4849C4.4836 24.4363 4.47349 24.3842 4.47408 24.3317V22.5593C4.47349 22.5068 4.4836 22.4547 4.50381 22.4061C4.52402 22.3575 4.55393 22.3133 4.59178 22.2761C4.62963 22.239 4.67466 22.2097 4.72422 22.1898C4.77379 22.17 4.82689 22.1601 4.88042 22.1607H6.71333C6.76686 22.1601 6.81996 22.17 6.86953 22.1898C6.91909 22.2097 6.96412 22.239 7.00197 22.2761C7.03982 22.3133 7.06973 22.3575 7.08994 22.4061C7.11015 22.4547 7.12026 22.5068 7.11967 22.5593V24.3317Z" fill="#FCB61A"/>
<path fill-rule="evenodd" clip-rule="evenodd" d="M10.8341 24.3317C10.8347 24.3846 10.8244 24.437 10.804 24.486C10.7835 24.5349 10.7532 24.5793 10.7148 24.6164C10.6765 24.6536 10.631 24.6829 10.5809 24.7025C10.5308 24.722 10.4772 24.7315 10.4233 24.7303H8.59483C8.54131 24.7309 8.4882 24.721 8.43864 24.7012C8.38907 24.6814 8.34404 24.652 8.30619 24.6149C8.26834 24.5777 8.23844 24.5336 8.21822 24.4849C8.19801 24.4363 8.18791 24.3842 8.1885 24.3317V22.5593C8.18791 22.5068 8.19801 22.4547 8.21822 22.4061C8.23844 22.3575 8.26834 22.3133 8.30619 22.2762C8.34404 22.239 8.38907 22.2097 8.43864 22.1898C8.4882 22.17 8.54131 22.1601 8.59483 22.1607H10.4233C10.4772 22.1595 10.5308 22.169 10.5809 22.1886C10.631 22.2081 10.6765 22.2374 10.7148 22.2746C10.7532 22.3118 10.7835 22.3562 10.804 22.4051C10.8244 22.454 10.8347 22.5065 10.8341 22.5593V24.3317Z" fill="#FCB61A"/>
<path fill-rule="evenodd" clip-rule="evenodd" d="M7.11967 27.9457C7.12026 27.9982 7.11015 28.0503 7.08994 28.0989C7.06973 28.1476 7.03982 28.1917 7.00197 28.2289C6.96412 28.266 6.91909 28.2954 6.86953 28.3152C6.81996 28.335 6.76686 28.3449 6.71333 28.3443H4.88042C4.82689 28.3449 4.77379 28.335 4.72422 28.3152C4.67466 28.2954 4.62963 28.266 4.59178 28.2289C4.55393 28.1917 4.52402 28.1476 4.50381 28.0989C4.4836 28.0503 4.47349 27.9982 4.47408 27.9457V26.1777C4.47349 26.1252 4.4836 26.0731 4.50381 26.0244C4.52402 25.9758 4.55393 25.9316 4.59178 25.8945C4.62963 25.8574 4.67466 25.828 4.72422 25.8082C4.77379 25.7884 4.82689 25.7784 4.88042 25.779H6.71333C6.76686 25.7784 6.81996 25.7884 6.86953 25.8082C6.91909 25.828 6.96412 25.8574 7.00197 25.8945C7.03982 25.9316 7.06973 25.9758 7.08994 26.0244C7.11015 26.0731 7.12026 26.1252 7.11967 26.1777V27.9457Z" fill="#FCB61A"/>
<path fill-rule="evenodd" clip-rule="evenodd" d="M10.8341 27.9457C10.8347 27.9986 10.8244 28.051 10.804 28.1C10.7835 28.1489 10.7532 28.1933 10.7148 28.2305C10.6765 28.2677 10.631 28.2969 10.5809 28.3165C10.5308 28.336 10.4772 28.3455 10.4233 28.3444H8.59483C8.54131 28.3449 8.4882 28.335 8.43864 28.3152C8.38907 28.2954 8.34404 28.266 8.30619 28.2289C8.26834 28.1917 8.23844 28.1476 8.21822 28.0989C8.19801 28.0503 8.18791 27.9982 8.1885 27.9457V26.1777C8.18791 26.1252 8.19801 26.0731 8.21822 26.0244C8.23844 25.9758 8.26834 25.9316 8.30619 25.8945C8.34404 25.8574 8.38907 25.828 8.43864 25.8082C8.4882 25.7884 8.54131 25.7784 8.59483 25.779H10.4233C10.4772 25.7779 10.5308 25.7873 10.5809 25.8069C10.631 25.8265 10.6765 25.8557 10.7148 25.8929C10.7532 25.9301 10.7835 25.9745 10.804 26.0234C10.8244 26.0723 10.8347 26.1248 10.8341 26.1777V27.9457Z" fill="#FCB61A"/>
<path fill-rule="evenodd" clip-rule="evenodd" d="M19.2478 27.7333C18.466 28.1348 17.5951 28.3402 16.7127 28.3313C16.2864 28.3547 15.8599 28.2903 15.4606 28.142C15.0612 27.9938 14.698 27.7652 14.3942 27.4708C14.0905 27.1765 13.853 26.823 13.697 26.4331C13.541 26.0431 13.4699 25.6255 13.4885 25.207C13.4678 24.7856 13.5369 24.3646 13.6915 23.9709C13.846 23.5772 14.0825 23.2195 14.386 22.9206C14.6894 22.6217 15.053 22.3881 15.4537 22.2349C15.8543 22.0817 16.2831 22.0121 16.7127 22.0307C17.585 21.9778 18.4457 22.2485 19.1242 22.789L18.3248 23.5733C17.8865 23.1868 17.3151 22.9777 16.7259 22.9883C16.4416 22.9837 16.1593 23.0367 15.8967 23.144C15.6342 23.2513 15.3971 23.4106 15.2001 23.6119C15.0032 23.8133 14.8508 24.0523 14.7523 24.3141C14.6539 24.5759 14.6116 24.8548 14.628 25.1333C14.628 26.4073 15.4672 27.365 16.7259 27.365C17.2255 27.3813 17.721 27.2724 18.1658 27.0487V25.6187H16.9158V24.648H19.2611V27.7333H19.2478Z" fill="white"/>
<path fill-rule="evenodd" clip-rule="evenodd" d="M20.5375 22.1606H22.6619C23.8412 22.1606 24.9409 22.5333 24.9409 23.894C24.9646 24.2942 24.83 24.6879 24.565 24.9931C24.3001 25.2983 23.9252 25.4913 23.5187 25.532L25.1441 28.1666H23.85L22.4411 25.6013H21.6417V28.1666H20.5375V22.1606ZM22.472 24.7C23.0815 24.7 23.797 24.648 23.797 23.8636C23.797 23.0793 23.1212 23.0663 22.5647 23.0663H21.6417V24.7H22.472Z" fill="white"/>
<path fill-rule="evenodd" clip-rule="evenodd" d="M26.1334 22.1606H30.1835V23.1313H27.2155V24.609H30.0333V25.5666H27.2155V27.2003H30.3337V28.1666H26.1334V22.1606Z" fill="white"/>
<path fill-rule="evenodd" clip-rule="evenodd" d="M36.8792 27.7333C36.0973 28.1348 35.2264 28.3402 34.344 28.3313C33.9177 28.3547 33.4912 28.2902 33.0919 28.142C32.6926 27.9938 32.3293 27.7652 32.0256 27.4708C31.7218 27.1765 31.4843 26.823 31.3283 26.4331C31.1723 26.0431 31.1013 25.6255 31.1198 25.207C31.0991 24.7856 31.1683 24.3646 31.3228 23.9709C31.4773 23.5772 31.7139 23.2195 32.0173 22.9206C32.3207 22.6216 32.6844 22.3881 33.085 22.2349C33.4856 22.0816 33.9144 22.0121 34.344 22.0307C35.2176 21.9784 36.0795 22.2489 36.7599 22.789L35.9605 23.5733C35.5222 23.1868 34.9509 22.9777 34.3617 22.9883C34.0756 22.9813 33.7912 23.0325 33.5264 23.1387C33.2615 23.2449 33.022 23.4037 32.8228 23.6052C32.6236 23.8068 32.4691 24.0466 32.3691 24.3096C32.2691 24.5726 32.2257 24.8531 32.2417 25.1333C32.2417 26.4073 33.0808 27.365 34.344 27.365C34.8421 27.3809 35.3361 27.2721 35.7794 27.0487V25.6187H34.5472V24.648H36.8924V27.7333H36.8792Z" fill="white"/>
<path fill-rule="evenodd" clip-rule="evenodd" d="M43.6588 27.7333C42.8769 28.1348 42.006 28.3402 41.1236 28.3313C40.6962 28.3559 40.2683 28.2923 39.8675 28.1448C39.4667 27.9972 39.1018 27.7689 38.7964 27.4746C38.491 27.1802 38.2519 26.8264 38.0943 26.4358C37.9368 26.0453 37.8644 25.6267 37.8817 25.207C37.8609 24.7841 37.9305 24.3616 38.0861 23.9666C38.2416 23.5717 38.4798 23.2131 38.7851 22.9139C39.0905 22.6147 39.4563 22.3815 39.8591 22.2294C40.2618 22.0773 40.6926 22.0096 41.1236 22.0307C41.9958 21.9787 42.8562 22.2492 43.5351 22.789L42.7357 23.5733C42.2974 23.1868 41.726 22.9777 41.1368 22.9883C40.8523 22.9837 40.5698 23.0367 40.3071 23.144C40.0443 23.2512 39.8069 23.4104 39.6096 23.6117C39.4124 23.813 39.2595 24.052 39.1605 24.3138C39.0616 24.5756 39.0187 24.8545 39.0345 25.1333C39.0345 26.4073 39.8737 27.365 41.1368 27.365C41.635 27.3813 42.1291 27.2724 42.5723 27.0487V25.6187H41.3268V24.648H43.672V27.7333H43.6588Z" fill="white"/>
<path fill-rule="evenodd" clip-rule="evenodd" d="M47.9783 23.452C47.8512 23.2952 47.6881 23.1703 47.5023 23.0874C47.3165 23.0045 47.1133 22.9661 46.9094 22.9753C46.4059 22.9753 45.9068 23.2007 45.9068 23.7467C45.9068 24.9557 48.8086 24.2623 48.8086 26.403C48.8086 27.703 47.7751 28.3183 46.5693 28.3183C46.1949 28.3369 45.8209 28.2738 45.4742 28.1337C45.1275 27.9936 44.8167 27.7799 44.5642 27.508L45.3901 26.7237C45.5237 26.9165 45.7035 27.0742 45.9138 27.183C46.124 27.2918 46.3582 27.3483 46.5958 27.3477C47.0993 27.3477 47.6691 27.0833 47.6691 26.5243C47.6691 25.2243 44.7673 25.9653 44.7673 23.8247C44.7673 22.5897 45.8936 22.0047 47.0198 22.0047C47.3418 21.9885 47.6638 22.0353 47.9671 22.1424C48.2704 22.2495 48.549 22.4148 48.7865 22.6287L48.0003 23.452H47.9783Z" fill="white"/>
</svg>
