<svg width="52" height="52" viewBox="0 0 52 52" fill="none" xmlns="http://www.w3.org/2000/svg">
<path d="M48.8063 0H3.19367C1.42985 0 0 1.42985 0 3.19367V48.8063C0 50.5701 1.42985 52 3.19367 52H48.8063C50.5701 52 52 50.5701 52 48.8063V3.19367C52 1.42985 50.5701 0 48.8063 0Z" fill="#668DD6"/>
<path d="M11.9383 30.862C10.0577 29.7526 8.50634 28.8513 8.49767 28.8556C8.489 28.86 8.476 29.4926 8.47167 30.6886V32.5173H5.772V28.2143C5.772 25.8483 5.772 23.881 5.772 23.881C5.85873 23.797 5.96205 23.732 6.07534 23.6903C6.07534 23.6903 7.64834 24.596 9.542 25.701C11.4357 26.806 13.0087 27.7116 13.0087 27.7116C13.0087 27.7116 13.0303 27.0703 13.039 25.7746V23.842H15.6737V32.7166L15.548 32.7946C15.4978 32.8295 15.4422 32.8559 15.3833 32.8726C15.3833 32.8726 13.8233 31.967 11.9383 30.862ZM15.4267 28.3443C15.4267 25.1073 15.4267 24.1453 15.405 24.128C15.3833 24.1106 13.3727 24.0976 13.3423 24.128C13.312 24.1583 13.3207 24.7216 13.3163 26.182V28.2056L9.74567 26.1256L6.13167 24.024C6.09267 24.024 6.07534 24.024 6.06234 24.024C6.04934 24.024 6.04067 25.0726 6.04067 28.1103C6.04067 30.3506 6.04067 32.1923 6.04067 32.2096C6.39613 32.2656 6.75729 32.2758 7.11534 32.24H8.177C8.177 32.24 8.177 31.3733 8.177 30.2986V28.3616L11.765 30.4676C13.7367 31.6246 15.3617 32.565 15.3747 32.5606C15.3877 32.5563 15.4267 31.8673 15.4267 28.3443ZM17.4113 32.5C17.4113 32.5 17.4113 30.5326 17.4113 28.1666V23.8333H26V26.1776H23.218H20.436V26.8666H21.8573C23.1963 26.8666 23.283 26.8666 23.283 26.9013C23.283 26.936 22.8497 29.0073 22.8497 29.029C22.4515 29.0775 22.0502 29.0949 21.6493 29.081L20.449 29.1113C20.4236 29.2866 20.4236 29.4647 20.449 29.64V30.1556H23.231H26.013V32.5H21.7187C18.291 32.526 17.42 32.5216 17.4113 32.5ZM25.7443 31.3343V30.4676H20.1673V29.6443C20.1449 29.3755 20.1536 29.1051 20.1933 28.8383L21.4197 28.8036C22.113 28.8036 22.633 28.7733 22.6417 28.7603C22.6503 28.7473 22.971 27.196 22.9537 27.1786C22.9363 27.1613 22.321 27.1786 21.5583 27.1786H20.176V25.9176H25.7443V25.051C25.7701 24.7511 25.7701 24.4495 25.7443 24.1496C25.714 24.1496 17.784 24.1496 17.7407 24.1496C17.6973 24.1496 17.7103 24.5353 17.7103 28.2143V32.2703H25.7443V31.3386V31.3343ZM27.6467 32.5C27.6467 32.5 27.6467 30.5326 27.6467 28.1666V23.8333H31.2347C33.709 23.8333 34.879 23.8333 34.996 23.8333C35.3071 23.868 35.6005 23.9958 35.8378 24.1999C36.0752 24.404 36.2454 24.6749 36.3263 24.9773C36.3864 25.6458 36.3995 26.3177 36.3653 26.988C36.3653 29.0983 36.3653 29.0246 36.2527 29.2803C36.1274 29.5264 35.9291 29.7277 35.685 29.8566C35.6243 29.8913 35.5767 29.9346 35.5767 29.9476C35.5767 29.9606 35.8973 30.4373 36.2917 31.0006L37.063 32.1143L37.128 32.2053L37.0543 32.3483C37.0067 32.4436 36.972 32.4956 36.946 32.5C36.92 32.5043 36.2223 32.5 35.3817 32.5H33.852L33.033 31.2866L32.2097 30.056H30.6843V31.2823V32.5086H29.1633C28.6581 32.5355 28.1519 32.5355 27.6467 32.5086V32.5ZM30.3897 32.227C30.3897 32.227 30.3897 31.668 30.3897 30.992V29.7656H31.3473C32.24 29.7656 32.305 29.7656 32.3353 29.796C32.3657 29.8263 32.7253 30.368 33.163 31.0266L33.9603 32.227H35.3557C35.82 32.2649 36.2867 32.2649 36.751 32.227C36.751 32.227 36.4 31.6333 35.9667 30.9963L35.1 29.7916C35.1 29.7916 35.1607 29.757 35.243 29.7396C35.4389 29.7032 35.6204 29.6118 35.7663 29.4759C35.9121 29.3401 36.0162 29.1655 36.0663 28.9726C36.0663 28.9076 36.0663 28.223 36.0663 26.9966V25.1333L36.023 25.0076C35.9762 24.8488 35.8975 24.7011 35.7917 24.5737C35.6859 24.4463 35.5552 24.3418 35.4077 24.2666C35.1303 24.1323 35.4423 24.141 31.4817 24.1453H27.9197V28.1666C27.9197 30.381 27.9197 32.201 27.9197 32.214C28.3301 32.254 28.7429 32.2627 29.1547 32.24L30.3897 32.227ZM30.3897 28.0886C30.3897 28.0886 30.3897 27.56 30.3897 26.9403V25.8136H33.5833V28.119H31.993C30.7363 28.119 30.3983 28.119 30.394 28.119L30.3897 28.0886ZM33.3017 26.9576V26.091H30.667V26.9576C30.667 27.4256 30.667 27.8243 30.667 27.8243C31.0999 27.8526 31.5341 27.8526 31.967 27.8243H33.267L33.3017 26.9576ZM39.325 32.5C39.0257 32.4383 38.752 32.2879 38.5394 32.0684C38.3269 31.8489 38.1854 31.5704 38.1333 31.2693C38.1073 31.1436 38.103 30.7926 38.1073 28.1146C38.1073 24.7996 38.1073 25.0813 38.2243 24.778C38.3606 24.4616 38.5965 24.1984 38.896 24.0283C39.0795 23.9293 39.279 23.8633 39.4853 23.8333C39.6023 23.8333 40.638 23.8333 42.861 23.8333H46.0633L46.2107 23.8723C46.4741 23.9399 46.7153 24.0749 46.9106 24.2641C47.1059 24.4533 47.2485 24.6902 47.3243 24.9513L47.3633 25.0943V31.2736L47.3113 31.4296C47.2585 31.5978 47.178 31.756 47.073 31.8976C46.8503 32.1954 46.5268 32.4018 46.163 32.4783C46.033 32.5043 45.6647 32.5086 42.7267 32.5086C40.04 32.5 39.4333 32.5 39.325 32.5ZM46.1327 32.2226C46.3445 32.173 46.5399 32.0695 46.7001 31.9222C46.8602 31.775 46.9797 31.5889 47.047 31.382L47.0903 31.252V28.2316C47.0903 24.8776 47.0903 25.0813 46.969 24.8083C46.8918 24.6482 46.7804 24.507 46.6426 24.3946C46.5049 24.2823 46.3441 24.2016 46.1717 24.1583C46.0503 24.1236 45.8857 24.1236 42.7353 24.1236C39.0607 24.1236 39.3467 24.1236 39.065 24.2493C38.9138 24.3247 38.78 24.4307 38.6718 24.5605C38.5637 24.6902 38.4836 24.841 38.4367 25.0033L38.3933 25.1376V31.2346L38.4453 31.382C38.5326 31.6383 38.6977 31.861 38.9177 32.019C39.0395 32.1032 39.1763 32.1635 39.3207 32.1966C39.4507 32.2313 39.572 32.2313 42.731 32.2313C45.5347 32.2313 46.0287 32.2313 46.1327 32.2053V32.2226ZM40.7333 30.4286C40.7333 30.4286 40.7333 29.4016 40.7333 28.1666V25.9176H44.8543V30.4286H42.809C41.652 30.4373 40.7333 30.433 40.7333 30.4286ZM44.5423 28.1666V26.2036H41.0107V28.1666C41.0107 29.2413 41.0107 30.1296 41.0107 30.1426C41.0107 30.1556 41.3833 30.1426 42.783 30.1426H44.5423V28.1666ZM17.9573 22.1C17.8633 22.0752 17.7757 22.0302 17.7009 21.9681C17.626 21.906 17.5657 21.8282 17.524 21.7403L17.472 21.632V19.292L17.5197 19.1836C17.5923 19.0386 17.7134 18.9236 17.862 18.8586L17.966 18.8153H20.5097V19.8033H19.6127H18.7157V21.1033H19.6127H20.5097V21.5626C20.5182 21.7286 20.5182 21.895 20.5097 22.061V22.1H19.2573C18.5857 22.126 18.0007 22.1 17.9573 22.1ZM20.3407 21.9266C20.3581 21.7176 20.3581 21.5074 20.3407 21.2983C20.0414 21.2662 19.74 21.2575 19.4393 21.2723H18.5467V19.6646H19.435C19.7357 19.6795 20.037 19.6708 20.3363 19.6386C20.3537 19.4296 20.3537 19.2194 20.3363 19.0103C19.9369 18.9584 19.533 18.9497 19.1317 18.9843C17.8013 18.9843 17.8663 18.9843 17.732 19.1143C17.5977 19.2443 17.602 19.188 17.602 20.475C17.602 21.762 17.602 21.7013 17.732 21.8356C17.862 21.97 17.8013 21.9656 19.1317 21.9656C19.5346 21.9992 19.9399 21.989 20.3407 21.9353V21.9266ZM21.372 22.1086C21.372 22.1086 21.372 21.4846 21.372 20.735C21.3355 20.2454 21.3471 19.7533 21.4067 19.266C21.4452 19.1282 21.5311 19.0085 21.6493 18.928C21.8357 18.8023 21.8097 18.8023 23.1963 18.811H24.44L24.5527 18.863C24.7039 18.9376 24.8237 19.0635 24.8907 19.2183L24.934 19.3223V22.1H24.297C24.0869 22.1254 23.8745 22.1254 23.6643 22.1C23.6546 21.9658 23.6546 21.8311 23.6643 21.697C23.6643 21.4023 23.6643 21.3156 23.6383 21.307C23.6123 21.2983 22.6893 21.4413 22.672 21.4586C22.6621 21.5696 22.6621 21.6813 22.672 21.7923V22.1H22.009C21.6667 22.126 21.3763 22.1216 21.372 22.1V22.1086ZM22.4813 21.9266C22.4895 21.8199 22.4895 21.7127 22.4813 21.606C22.4718 21.5094 22.4718 21.4122 22.4813 21.3156L23.7163 21.1206H23.7683V21.5236C23.7592 21.6679 23.7592 21.8127 23.7683 21.957C23.9278 21.981 24.0899 21.981 24.2493 21.957H24.7173V20.657C24.7173 19.357 24.7173 19.357 24.6827 19.2616C24.6552 19.203 24.617 19.1501 24.57 19.1056C24.4357 18.98 24.505 18.9886 23.0923 18.9886C21.6797 18.9886 21.7447 18.9886 21.6103 19.1186C21.476 19.2486 21.4803 19.175 21.4803 20.6353C21.4803 21.359 21.4803 21.9353 21.4803 21.9613C21.4803 21.9873 21.7013 21.9613 21.9527 21.9613C22.412 21.9613 22.4727 21.9613 22.4813 21.9353V21.9266ZM22.4813 20.7133C22.4813 20.7133 22.4813 20.4706 22.4813 20.1846V19.6733H23.7813V20.1066C23.7813 20.4273 23.7813 20.54 23.7813 20.54C23.7813 20.54 22.5333 20.7306 22.503 20.722L22.4813 20.7133ZM23.127 20.4706C23.2902 20.4501 23.4521 20.4211 23.6123 20.384C23.6223 20.2875 23.6223 20.1902 23.6123 20.0936V19.8206H22.6503V20.1586C22.6503 20.4793 22.6503 20.5443 22.672 20.5443L23.127 20.4706ZM25.7963 22.1C25.7963 22.1 25.7963 21.346 25.7963 20.449V18.824H28.8297V19.812H27.963H27.0963V19.9593H27.6077C27.7823 19.9501 27.9573 19.9501 28.132 19.9593C28.094 20.2604 28.0361 20.5586 27.9587 20.852C27.8158 20.8788 27.6706 20.8904 27.5253 20.8866H27.092V21.4716V22.0566H26.4333C26.2276 22.0821 26.0194 22.0821 25.8137 22.0566L25.7963 22.1ZM26.8667 21.3763V20.8H27.118C27.2523 20.8 27.4517 20.8 27.5513 20.8C27.651 20.8 27.7463 20.8 27.7593 20.774C27.817 20.5876 27.8561 20.396 27.8763 20.202C27.8763 20.1803 27.7593 20.176 27.3737 20.1716H26.897V19.695H27.7853H28.652V18.9886H25.961V20.4533C25.961 21.2593 25.961 21.9266 25.961 21.9396C25.961 21.9526 26.0737 21.9396 26.4247 21.9396H26.8667V21.3763ZM29.406 22.1C29.406 22.1 29.406 21.346 29.406 20.449V18.824H32.4393V19.812H31.5727H30.706V19.9593H31.2173C31.499 19.9593 31.7373 19.9593 31.7417 19.9593C31.7009 20.2631 31.6415 20.5641 31.564 20.8606C31.4206 20.8822 31.2757 20.8923 31.1307 20.891H30.6973V21.476V22.061H30.0213C29.8171 22.087 29.6103 22.087 29.406 22.061V22.1ZM30.4807 21.931C30.4807 21.931 30.4807 21.6493 30.4807 21.346V20.8H30.7667C30.901 20.8 31.1003 20.8 31.2 20.8C31.2997 20.8 31.3907 20.8 31.4037 20.774C31.4568 20.5955 31.4944 20.4129 31.5163 20.228V20.15H30.4937V19.6646H31.3603C31.6581 19.6791 31.9566 19.6704 32.253 19.6386C32.2682 19.4295 32.2682 19.2195 32.253 19.0103C31.8014 18.9576 31.3457 18.9489 30.8923 18.9843H29.562V20.462C29.562 21.2766 29.562 21.9483 29.562 21.957C29.562 21.9656 29.7743 21.957 30.0213 21.957C30.4157 21.9613 30.472 21.9613 30.4807 21.9353V21.931ZM33.0807 22.1C33.0807 22.1 33.0807 21.346 33.0807 20.449V18.824H36.3567V19.812H35.3383H34.3243V19.9593H34.8357C35.1173 19.9593 35.3557 19.9593 35.36 19.9593C35.3192 20.2631 35.2599 20.5641 35.1823 20.8606C35.0389 20.8819 34.894 20.8921 34.749 20.891H34.3157V21.073H35.3297H36.348V22.1H34.71C33.41 22.1 33.072 22.1 33.0633 22.1H33.0807ZM36.1833 21.9613C36.1833 21.9613 36.205 21.8703 36.1833 21.619V21.2896H34.1553V20.8H34.4067C34.541 20.8 34.7403 20.8 34.84 20.8C34.9397 20.8 35.0307 20.8 35.0437 20.774C35.0985 20.5888 35.1348 20.3987 35.152 20.2063C35.152 20.1803 35.074 20.176 34.645 20.176H34.1553V19.6646H35.1607H36.1703V18.9886H34.697C34.2019 18.962 33.7058 18.962 33.2107 18.9886C33.2107 18.9886 33.2107 19.669 33.2107 20.4663C33.2107 21.5756 33.2107 21.931 33.2107 21.9483C33.2107 21.9656 33.579 21.9483 34.6797 21.9483C35.49 21.983 36.153 21.9743 36.166 21.9656L36.1833 21.9613ZM34.6667 18.564C34.5443 18.5341 34.4334 18.4689 34.3479 18.3764C34.2623 18.2839 34.2059 18.1683 34.1857 18.044C34.1558 17.8734 34.1558 17.6989 34.1857 17.5283C34.1857 17.5066 36.179 18.0743 36.218 18.109C36.2816 18.262 36.3267 18.422 36.3523 18.5856C36.3523 18.5856 35.984 18.5856 35.5463 18.5856C35.253 18.6003 34.9589 18.593 34.6667 18.564ZM36.1357 18.4383C36.1703 18.4383 36.1747 18.369 36.1357 18.2866C36.0967 18.2043 36.218 18.2563 35.1217 17.9356C34.6883 17.8186 34.3633 17.7233 34.3503 17.7276C34.3373 17.732 34.3027 17.8316 34.3243 17.9616C34.3335 18.081 34.3824 18.1939 34.463 18.2823C34.5273 18.359 34.6161 18.411 34.7143 18.4296C34.8053 18.4296 36.0837 18.4296 36.127 18.4296L36.1357 18.4383Z" fill="#CE7502"/>
<path d="M11.9383 30.862C10.0577 29.7526 8.50634 28.8513 8.49767 28.8556C8.489 28.86 8.476 29.4926 8.47167 30.6886V32.5173H5.772V28.2143C5.772 25.8483 5.772 23.881 5.772 23.881C5.85873 23.797 5.96205 23.732 6.07534 23.6903C6.07534 23.6903 7.64834 24.596 9.542 25.701C11.4357 26.806 13.0087 27.7116 13.0087 27.7116C13.0087 27.7116 13.0303 27.0703 13.039 25.7746V23.842H15.6737V32.7166L15.548 32.7946C15.4978 32.8295 15.4422 32.8559 15.3833 32.8726C15.3833 32.8726 13.8233 31.967 11.9383 30.862ZM15.4267 28.3443C15.4267 25.1073 15.4267 24.1453 15.405 24.128C15.3833 24.1106 13.3727 24.0976 13.3423 24.128C13.312 24.1583 13.3207 24.7216 13.3163 26.182V28.2056L9.74567 26.1256L6.13167 24.024C6.09267 24.024 6.07534 24.024 6.06234 24.024C6.04934 24.024 6.04067 25.0726 6.04067 28.1103C6.04067 30.3506 6.04067 32.1923 6.04067 32.2096C6.39613 32.2656 6.75729 32.2758 7.11534 32.24H8.177C8.177 32.24 8.177 31.3733 8.177 30.2986V28.3616L11.765 30.4676C13.7367 31.6246 15.3617 32.565 15.3747 32.5606C15.3877 32.5563 15.4267 31.8673 15.4267 28.3443ZM17.4113 32.5C17.4113 32.5 17.4113 30.5326 17.4113 28.1666V23.8333H26V26.1776H23.218H20.436V26.8666H21.8573C23.1963 26.8666 23.283 26.8666 23.283 26.9013C23.283 26.936 22.8497 29.0073 22.8497 29.029C22.4515 29.0775 22.0502 29.0949 21.6493 29.081L20.449 29.1113C20.4236 29.2866 20.4236 29.4647 20.449 29.64V30.1556H23.231H26.013V32.5H21.7187C18.291 32.526 17.42 32.5216 17.4113 32.5ZM25.7443 31.3343V30.4676H20.1673V29.6443C20.1449 29.3755 20.1536 29.1051 20.1933 28.8383L21.4197 28.8036C22.113 28.8036 22.633 28.7733 22.6417 28.7603C22.6503 28.7473 22.971 27.196 22.9537 27.1786C22.9363 27.1613 22.321 27.1786 21.5583 27.1786H20.176V25.9176H25.7443V25.051C25.7701 24.7511 25.7701 24.4495 25.7443 24.1496C25.714 24.1496 17.784 24.1496 17.7407 24.1496C17.6973 24.1496 17.7103 24.5353 17.7103 28.2143V32.2703H25.7443V31.3386V31.3343ZM27.6467 32.5C27.6467 32.5 27.6467 30.5326 27.6467 28.1666V23.8333H31.2347C33.709 23.8333 34.879 23.8333 34.996 23.8333C35.3071 23.868 35.6005 23.9958 35.8378 24.1999C36.0752 24.404 36.2454 24.6749 36.3263 24.9773C36.3864 25.6458 36.3995 26.3177 36.3653 26.988C36.3653 29.0983 36.3653 29.0246 36.2527 29.2803C36.1274 29.5264 35.9291 29.7277 35.685 29.8566C35.6243 29.8913 35.5767 29.9346 35.5767 29.9476C35.5767 29.9606 35.8973 30.4373 36.2917 31.0006L37.063 32.1143L37.128 32.2053L37.0543 32.3483C37.0067 32.4436 36.972 32.4956 36.946 32.5C36.92 32.5043 36.2223 32.5 35.3817 32.5H33.852L33.033 31.2866L32.2097 30.056H30.6843V31.2823V32.5086H29.1633C28.6581 32.5355 28.1519 32.5355 27.6467 32.5086V32.5ZM30.3897 32.227C30.3897 32.227 30.3897 31.668 30.3897 30.992V29.7656H31.3473C32.24 29.7656 32.305 29.7656 32.3353 29.796C32.3657 29.8263 32.7253 30.368 33.163 31.0266L33.9603 32.227H35.3557C35.82 32.2649 36.2867 32.2649 36.751 32.227C36.751 32.227 36.4 31.6333 35.9667 30.9963L35.1 29.7916C35.1 29.7916 35.1607 29.757 35.243 29.7396C35.4389 29.7032 35.6204 29.6118 35.7663 29.4759C35.9121 29.3401 36.0162 29.1655 36.0663 28.9726C36.0663 28.9076 36.0663 28.223 36.0663 26.9966V25.1333L36.023 25.0076C35.9762 24.8488 35.8975 24.7011 35.7917 24.5737C35.6859 24.4463 35.5552 24.3418 35.4077 24.2666C35.1303 24.1323 35.4423 24.141 31.4817 24.1453H27.9197V28.1666C27.9197 30.381 27.9197 32.201 27.9197 32.214C28.3301 32.254 28.7429 32.2627 29.1547 32.24L30.3897 32.227ZM30.3897 28.0886C30.3897 28.0886 30.3897 27.56 30.3897 26.9403V25.8136H33.5833V28.119H31.993C30.7363 28.119 30.3983 28.119 30.394 28.119L30.3897 28.0886ZM33.3017 26.9576V26.091H30.667V26.9576C30.667 27.4256 30.667 27.8243 30.667 27.8243C31.0999 27.8526 31.5341 27.8526 31.967 27.8243H33.267L33.3017 26.9576ZM39.325 32.5C39.0257 32.4383 38.752 32.2879 38.5394 32.0684C38.3269 31.8489 38.1854 31.5704 38.1333 31.2693C38.1073 31.1436 38.103 30.7926 38.1073 28.1146C38.1073 24.7996 38.1073 25.0813 38.2243 24.778C38.3606 24.4616 38.5965 24.1984 38.896 24.0283C39.0795 23.9293 39.279 23.8633 39.4853 23.8333C39.6023 23.8333 40.638 23.8333 42.861 23.8333H46.0633L46.2107 23.8723C46.4741 23.9399 46.7153 24.0749 46.9106 24.2641C47.1059 24.4533 47.2485 24.6902 47.3243 24.9513L47.3633 25.0943V31.2736L47.3113 31.4296C47.2585 31.5978 47.178 31.756 47.073 31.8976C46.8503 32.1954 46.5268 32.4018 46.163 32.4783C46.033 32.5043 45.6647 32.5086 42.7267 32.5086C40.04 32.5 39.4333 32.5 39.325 32.5ZM46.1327 32.2226C46.3445 32.173 46.5399 32.0695 46.7001 31.9222C46.8602 31.775 46.9797 31.5889 47.047 31.382L47.0903 31.252V28.2316C47.0903 24.8776 47.0903 25.0813 46.969 24.8083C46.8918 24.6482 46.7804 24.507 46.6426 24.3946C46.5049 24.2823 46.3441 24.2016 46.1717 24.1583C46.0503 24.1236 45.8857 24.1236 42.7353 24.1236C39.0607 24.1236 39.3467 24.1236 39.065 24.2493C38.9138 24.3247 38.78 24.4307 38.6718 24.5605C38.5637 24.6902 38.4836 24.841 38.4367 25.0033L38.3933 25.1376V31.2346L38.4453 31.382C38.5326 31.6383 38.6977 31.861 38.9177 32.019C39.0395 32.1032 39.1763 32.1635 39.3207 32.1966C39.4507 32.2313 39.572 32.2313 42.731 32.2313C45.5347 32.2313 46.0287 32.2313 46.1327 32.2053V32.2226ZM40.7333 30.4286C40.7333 30.4286 40.7333 29.4016 40.7333 28.1666V25.9176H44.8543V30.4286H42.809C41.652 30.4373 40.7333 30.433 40.7333 30.4286ZM44.5423 28.1666V26.2036H41.0107V28.1666C41.0107 29.2413 41.0107 30.1296 41.0107 30.1426C41.0107 30.1556 41.3833 30.1426 42.783 30.1426H44.5423V28.1666ZM17.9573 22.1C17.8633 22.0752 17.7757 22.0302 17.7009 21.9681C17.626 21.906 17.5657 21.8282 17.524 21.7403L17.472 21.632V19.292L17.5197 19.1836C17.5923 19.0386 17.7134 18.9236 17.862 18.8586L17.966 18.8153H20.5097V19.8033H19.6127H18.7157V21.1033H19.6127H20.5097V21.5626C20.5182 21.7286 20.5182 21.895 20.5097 22.061V22.1H19.2573C18.5857 22.126 18.0007 22.1 17.9573 22.1ZM20.3407 21.9266C20.3581 21.7176 20.3581 21.5074 20.3407 21.2983C20.0414 21.2662 19.74 21.2575 19.4393 21.2723H18.5467V19.6646H19.435C19.7357 19.6795 20.037 19.6708 20.3363 19.6386C20.3537 19.4296 20.3537 19.2194 20.3363 19.0103C19.9369 18.9584 19.533 18.9497 19.1317 18.9843C17.8013 18.9843 17.8663 18.9843 17.732 19.1143C17.5977 19.2443 17.602 19.188 17.602 20.475C17.602 21.762 17.602 21.7013 17.732 21.8356C17.862 21.97 17.8013 21.9656 19.1317 21.9656C19.5346 21.9992 19.9399 21.989 20.3407 21.9353V21.9266ZM21.372 22.1086C21.372 22.1086 21.372 21.4846 21.372 20.735C21.3355 20.2454 21.3471 19.7533 21.4067 19.266C21.4452 19.1282 21.5311 19.0085 21.6493 18.928C21.8357 18.8023 21.8097 18.8023 23.1963 18.811H24.44L24.5527 18.863C24.7039 18.9376 24.8237 19.0635 24.8907 19.2183L24.934 19.3223V22.1H24.297C24.0869 22.1254 23.8745 22.1254 23.6643 22.1C23.6546 21.9658 23.6546 21.8311 23.6643 21.697C23.6643 21.4023 23.6643 21.3156 23.6383 21.307C23.6123 21.2983 22.6893 21.4413 22.672 21.4586C22.6621 21.5696 22.6621 21.6813 22.672 21.7923V22.1H22.009C21.6667 22.126 21.3763 22.1216 21.372 22.1V22.1086ZM22.4813 21.9266C22.4895 21.8199 22.4895 21.7127 22.4813 21.606C22.4718 21.5094 22.4718 21.4122 22.4813 21.3156L23.7163 21.1206H23.7683V21.5236C23.7592 21.6679 23.7592 21.8127 23.7683 21.957C23.9278 21.981 24.0899 21.981 24.2493 21.957H24.7173V20.657C24.7173 19.357 24.7173 19.357 24.6827 19.2616C24.6552 19.203 24.617 19.1501 24.57 19.1056C24.4357 18.98 24.505 18.9886 23.0923 18.9886C21.6797 18.9886 21.7447 18.9886 21.6103 19.1186C21.476 19.2486 21.4803 19.175 21.4803 20.6353C21.4803 21.359 21.4803 21.9353 21.4803 21.9613C21.4803 21.9873 21.7013 21.9613 21.9527 21.9613C22.412 21.9613 22.4727 21.9613 22.4813 21.9353V21.9266ZM22.4813 20.7133C22.4813 20.7133 22.4813 20.4706 22.4813 20.1846V19.6733H23.7813V20.1066C23.7813 20.4273 23.7813 20.54 23.7813 20.54C23.7813 20.54 22.5333 20.7306 22.503 20.722L22.4813 20.7133ZM23.127 20.4706C23.2902 20.4501 23.4521 20.4211 23.6123 20.384C23.6223 20.2875 23.6223 20.1902 23.6123 20.0936V19.8206H22.6503V20.1586C22.6503 20.4793 22.6503 20.5443 22.672 20.5443L23.127 20.4706ZM25.7963 22.1C25.7963 22.1 25.7963 21.346 25.7963 20.449V18.824H28.8297V19.812H27.963H27.0963V19.9593H27.6077C27.7823 19.9501 27.9573 19.9501 28.132 19.9593C28.094 20.2604 28.0361 20.5586 27.9587 20.852C27.8158 20.8788 27.6706 20.8904 27.5253 20.8866H27.092V21.4716V22.0566H26.4333C26.2276 22.0821 26.0194 22.0821 25.8137 22.0566L25.7963 22.1ZM26.8667 21.3763V20.8H27.118C27.2523 20.8 27.4517 20.8 27.5513 20.8C27.651 20.8 27.7463 20.8 27.7593 20.774C27.817 20.5876 27.8561 20.396 27.8763 20.202C27.8763 20.1803 27.7593 20.176 27.3737 20.1716H26.897V19.695H27.7853H28.652V18.9886H25.961V20.4533C25.961 21.2593 25.961 21.9266 25.961 21.9396C25.961 21.9526 26.0737 21.9396 26.4247 21.9396H26.8667V21.3763ZM29.406 22.1C29.406 22.1 29.406 21.346 29.406 20.449V18.824H32.4393V19.812H31.5727H30.706V19.9593H31.2173C31.499 19.9593 31.7373 19.9593 31.7417 19.9593C31.7009 20.2631 31.6415 20.5641 31.564 20.8606C31.4206 20.8822 31.2757 20.8923 31.1307 20.891H30.6973V21.476V22.061H30.0213C29.8171 22.087 29.6103 22.087 29.406 22.061V22.1ZM30.4807 21.931C30.4807 21.931 30.4807 21.6493 30.4807 21.346V20.8H30.7667C30.901 20.8 31.1003 20.8 31.2 20.8C31.2997 20.8 31.3907 20.8 31.4037 20.774C31.4568 20.5955 31.4944 20.4129 31.5163 20.228V20.15H30.4937V19.6646H31.3603C31.6581 19.6791 31.9566 19.6704 32.253 19.6386C32.2682 19.4295 32.2682 19.2195 32.253 19.0103C31.8014 18.9576 31.3457 18.9489 30.8923 18.9843H29.562V20.462C29.562 21.2766 29.562 21.9483 29.562 21.957C29.562 21.9656 29.7743 21.957 30.0213 21.957C30.4157 21.9613 30.472 21.9613 30.4807 21.9353V21.931ZM33.0807 22.1C33.0807 22.1 33.0807 21.346 33.0807 20.449V18.824H36.3567V19.812H35.3383H34.3243V19.9593H34.8357C35.1173 19.9593 35.3557 19.9593 35.36 19.9593C35.3192 20.2631 35.2599 20.5641 35.1823 20.8606C35.0389 20.8819 34.894 20.8921 34.749 20.891H34.3157V21.073H35.3297H36.348V22.1H34.71C33.41 22.1 33.072 22.1 33.0633 22.1H33.0807ZM36.1833 21.9613C36.1833 21.9613 36.205 21.8703 36.1833 21.619V21.2896H34.1553V20.8H34.4067C34.541 20.8 34.7403 20.8 34.84 20.8C34.9397 20.8 35.0307 20.8 35.0437 20.774C35.0985 20.5888 35.1348 20.3987 35.152 20.2063C35.152 20.1803 35.074 20.176 34.645 20.176H34.1553V19.6646H35.1607H36.1703V18.9886H34.697C34.2019 18.962 33.7058 18.962 33.2107 18.9886C33.2107 18.9886 33.2107 19.669 33.2107 20.4663C33.2107 21.5756 33.2107 21.931 33.2107 21.9483C33.2107 21.9656 33.579 21.9483 34.6797 21.9483C35.49 21.983 36.153 21.9743 36.166 21.9656L36.1833 21.9613ZM34.6667 18.564C34.5443 18.5341 34.4334 18.4689 34.3479 18.3764C34.2623 18.2839 34.2059 18.1683 34.1857 18.044C34.1558 17.8734 34.1558 17.6989 34.1857 17.5283C34.1857 17.5066 36.179 18.0743 36.218 18.109C36.2816 18.262 36.3267 18.422 36.3523 18.5856C36.3523 18.5856 35.984 18.5856 35.5463 18.5856C35.253 18.6003 34.9589 18.593 34.6667 18.564ZM36.1357 18.4383C36.1703 18.4383 36.1747 18.369 36.1357 18.2866C36.0967 18.2043 36.218 18.2563 35.1217 17.9356C34.6883 17.8186 34.3633 17.7233 34.3503 17.7276C34.3373 17.732 34.3027 17.8316 34.3243 17.9616C34.3335 18.081 34.3824 18.1939 34.463 18.2823C34.5273 18.359 34.6161 18.411 34.7143 18.4296C34.8053 18.4296 36.0837 18.4296 36.127 18.4296L36.1357 18.4383Z" fill="#CE7502"/>
<path d="M17.7017 28.4007C17.7017 26.3077 17.7017 24.5007 17.7277 24.3577L17.7537 24.115H25.7053L25.7313 24.297C25.759 24.8186 25.7474 25.3415 25.6967 25.8613C25.6967 25.8613 24.427 25.9003 22.9147 25.9047H20.163V27.144H21.528C22.2777 27.144 22.9017 27.144 22.9147 27.1787C22.8486 27.6879 22.7531 28.1928 22.6287 28.691C22.2195 28.7476 21.8066 28.7722 21.3937 28.7647L20.1847 28.795V29.6097V30.42H22.4597C23.712 30.42 24.96 30.42 25.233 30.42L25.7313 30.446V32.1533H17.7017V28.4007Z" fill="black"/>
<path d="M15.0887 32.3613L12.1593 30.628L8.84867 28.691C8.64079 28.5571 8.42189 28.4411 8.19434 28.3443C8.19434 28.3443 8.17267 29.211 8.17267 30.2727V32.1793H6.06667V28.119C6.06667 25.8743 6.06667 24.037 6.09701 24.037C6.12734 24.037 7.73934 24.9773 9.71534 26.13C11.6913 27.2827 13.3077 28.2187 13.3163 28.2187C13.325 28.2187 13.3163 27.326 13.3163 26.234C13.2838 25.5491 13.2998 24.8627 13.364 24.18C13.4073 24.1237 13.507 24.115 14.391 24.1237H15.366V28.314C15.366 30.615 15.366 32.5 15.366 32.5C15.2701 32.461 15.1774 32.4146 15.0887 32.3613Z" fill="#FFFFE0"/>
<path d="M27.937 28.1667V24.154H31.5987H35.2603L35.4423 24.2623C35.6757 24.4131 35.8583 24.6305 35.9667 24.8863C36.036 25.051 36.0403 25.1723 36.0403 27.053C36.0403 29.016 36.0403 29.055 35.958 29.1893C35.9098 29.2704 35.8547 29.3473 35.7933 29.419C35.6121 29.568 35.4007 29.676 35.1737 29.7353C35.1347 29.7353 35.1043 29.757 35.1043 29.7787C35.1043 29.8003 35.4077 30.264 35.7803 30.8057C36.1124 31.2462 36.4219 31.7032 36.7077 32.175C36.7077 32.175 36.0923 32.175 35.3383 32.175H33.9907L33.2063 31.005C32.773 30.3593 32.396 29.8047 32.3657 29.7743C32.3353 29.744 32.149 29.7137 31.3517 29.7137H30.3983V30.68C30.3983 31.213 30.3983 31.7677 30.3983 31.9107L30.3723 32.175H27.937V28.1667ZM33.6007 26.9533V25.7833H30.407L30.381 25.9653C30.381 26.065 30.381 26.5763 30.381 27.0963C30.381 28.0497 30.381 28.0497 30.4677 28.0843C30.5543 28.119 31.2433 28.1233 32.0883 28.1233H33.6223L33.6007 26.9533Z" fill="black"/>
<path d="M39.2123 32.1447C39.0379 32.0803 38.8798 31.9782 38.7495 31.8456C38.6191 31.713 38.5197 31.5532 38.4583 31.3777C38.3717 31.1307 38.376 25.2287 38.4583 24.973C38.5649 24.6908 38.7633 24.4527 39.0217 24.297L39.2383 24.1757H46.228L46.4187 24.271C46.65 24.3984 46.8384 24.5914 46.9603 24.8257L47.047 24.9947V28.119C47.047 31.6117 47.073 31.395 46.7827 31.7677C46.6762 31.8998 46.5415 32.0064 46.3883 32.0797L46.1457 32.201H42.7613C40.001 32.201 39.3293 32.201 39.2123 32.1447ZM44.8457 28.1797V25.9133H40.7073V30.446H44.8457V28.1797Z" fill="black"/>
<path d="M33.241 21.944C33.2062 21.4493 33.1975 20.9532 33.215 20.4576V18.9973H36.166V19.643H35.6027C35.295 19.643 34.84 19.643 34.5973 19.643H34.164V20.15H34.502C34.684 20.15 34.9093 20.15 35.0003 20.15H35.1607V20.2496C35.1438 20.4077 35.1089 20.5632 35.0567 20.7133C34.9421 20.732 34.8261 20.7407 34.71 20.7393H34.2767H34.177V21.2463H36.1833V21.4803C36.1923 21.5914 36.1923 21.7029 36.1833 21.814V21.9093H34.71C33.6137 21.9093 33.2583 21.9093 33.241 21.9093V21.944Z" fill="black"/>
<path d="M29.5793 21.8573C29.5793 21.8053 29.5793 21.138 29.5793 20.371V18.98H30.628C31.2043 18.98 31.8153 18.98 31.98 18.98H32.2833V19.2746C32.2833 19.4956 32.2833 19.578 32.2833 19.591C31.9953 19.6177 31.706 19.6292 31.4167 19.6256H30.55V19.695C30.55 19.734 30.55 19.8423 30.55 19.9376V20.1066H31.5033V20.189C31.478 20.3587 31.4418 20.5266 31.395 20.6916C31.2787 20.7195 31.159 20.7297 31.0397 20.722H30.6063H30.5067V21.294V21.8616H30.0733H29.64L29.5793 21.8573Z" fill="black"/>
<path d="M25.974 20.4706V18.9973H28.6693V19.643H28.1667C27.8937 19.643 27.495 19.643 27.3 19.643H26.9013V20.15H27.2697C27.469 20.15 27.703 20.15 27.768 20.15C27.833 20.15 27.898 20.15 27.898 20.2063C27.8747 20.3824 27.837 20.5563 27.7853 20.7263C27.6681 20.7476 27.5491 20.7578 27.43 20.7566H26.9967L26.8667 20.8V21.9526H25.974V20.4706Z" fill="black"/>
<path d="M21.5453 20.6006V19.2573L21.5973 19.1793C21.697 19.0276 21.7447 19.0103 22.178 18.993C22.6113 18.9756 24.3707 18.993 24.4617 19.0146C24.5624 19.0576 24.6451 19.1341 24.6957 19.2313C24.7477 19.331 24.7563 19.6646 24.7433 20.9083V21.9483H24.2667H23.8073V21.5366V21.1033H23.7553L23.1053 21.203L22.5117 21.2983V21.4413C22.5117 21.5236 22.5117 21.6666 22.5117 21.7576V21.931H21.5367L21.5453 20.6006ZM23.2787 20.6006C23.4526 20.5791 23.6249 20.5458 23.7943 20.501C23.82 20.358 23.8301 20.2128 23.8247 20.0676V19.6343H23.1487H22.4857V19.7513C22.4857 19.8163 22.4857 20.0503 22.4857 20.28V20.7133H22.6157L23.2787 20.6006Z" fill="black"/>
<path d="M17.9183 21.9267C17.852 21.9115 17.7911 21.8784 17.7422 21.8311C17.6933 21.7837 17.6583 21.7239 17.641 21.658C17.641 21.619 17.641 21.0687 17.641 20.4317C17.641 19.1317 17.641 19.227 17.784 19.0927C17.8302 19.0448 17.8913 19.0142 17.9573 19.006C18.0093 19.006 18.564 19.006 19.188 19.006C19.5736 18.9733 19.9616 18.9835 20.345 19.0363C20.3711 19.2363 20.3711 19.4387 20.345 19.6387C20.345 19.6387 19.9593 19.6647 19.448 19.6733H18.5813V21.2723H19.448C19.9333 21.2723 20.3363 21.2723 20.345 21.2983C20.3613 21.4872 20.3613 21.6771 20.345 21.866V21.9353H19.149C18.5033 21.944 17.9487 21.9353 17.9183 21.9267Z" fill="black"/>
<path d="M34.6667 18.4037C34.5813 18.3719 34.5064 18.317 34.4505 18.245C34.3947 18.1731 34.36 18.0869 34.3503 17.9963C34.3157 17.8143 34.3243 17.7493 34.3937 17.7493C34.463 17.7493 35.7457 18.1177 35.9927 18.1827C36.1183 18.226 36.1313 18.2347 36.1443 18.2953C36.1573 18.356 36.2093 18.4123 35.4423 18.4123C35.1841 18.4337 34.9244 18.4308 34.6667 18.4037Z" fill="black"/>
<path d="M6.53467 32.2313C6.37643 32.2516 6.21625 32.2516 6.05801 32.2313V32.0666C6.05801 31.9973 6.05801 31.6333 6.05801 31.304C6.05801 30.9746 6.05801 30.407 6.05801 30.0863V29.5229H8.22467V29.627C8.22467 29.7483 8.22467 30.7146 8.22467 31.512C8.22467 31.8196 8.22467 32.11 8.22467 32.149V32.227H6.57801L6.53467 32.2313Z" fill="#FFFFE0"/>
<path d="M15.3227 32.5C14.82 32.2183 13.2557 31.3083 10.0577 29.432L8.27234 28.3876L8.20734 28.3573V28.6C8.20734 28.73 8.20734 29.5836 8.20734 30.498C8.20734 31.4123 8.20734 32.1793 8.20734 32.201V32.2356H7.12834H6.06234C6.03596 32.027 6.03596 31.8159 6.06234 31.6073C6.06234 30.2163 6.06234 26.0563 6.06234 25.1073C6.06234 23.9893 6.06234 24.0413 6.11867 24.0586C6.175 24.076 7.10234 24.6263 12.116 27.5253L13.325 28.2273C13.325 28.2273 13.325 27.3606 13.325 26.299C13.325 25.2373 13.325 24.3273 13.325 24.2666C13.325 24.206 13.325 24.1583 13.351 24.1496H13.8883C14.404 24.1496 15.3703 24.1496 15.3833 24.1496C15.3887 24.2507 15.3887 24.3519 15.3833 24.453C15.3833 24.843 15.3833 32.513 15.3833 32.539C15.3833 32.565 15.3833 32.539 15.3833 32.539C15.3616 32.5284 15.3413 32.5153 15.3227 32.5Z" fill="black"/>
</svg>
