<svg width="52" height="52" viewBox="0 0 52 52" fill="none" xmlns="http://www.w3.org/2000/svg">
<path d="M48.8063 0H3.19367C1.42985 0 0 1.42985 0 3.19367V48.8063C0 50.5701 1.42985 52 3.19367 52H48.8063C50.5701 52 52 50.5701 52 48.8063V3.19367C52 1.42985 50.5701 0 48.8063 0Z" fill="#006241"/>
<path d="M27.8157 15.1666C27.2045 15.0613 26.5855 15.0077 25.9653 15.0063C25.3467 15.0098 24.7293 15.0635 24.1193 15.1666C24.024 15.1666 23.9937 15.093 24.063 15.0366L25.974 13.5893L27.8763 15.0366C27.8894 15.0469 27.8986 15.0613 27.9024 15.0775C27.9063 15.0936 27.9046 15.1106 27.8975 15.1257C27.8905 15.1408 27.8786 15.153 27.8637 15.1604C27.8489 15.1679 27.8319 15.1701 27.8157 15.1666ZM24.6307 24.2666C24.6023 24.2756 24.5763 24.2907 24.5546 24.3109C24.5328 24.3312 24.5159 24.356 24.505 24.3836C24.895 24.6783 25.1593 25.3586 25.9653 25.3586C26.7713 25.3586 27.04 24.6783 27.4213 24.3836C27.4109 24.3565 27.3946 24.3319 27.3736 24.3117C27.3527 24.2915 27.3275 24.2761 27.3 24.2666C26.8617 24.3512 26.4159 24.3904 25.9697 24.3836C25.5204 24.3927 25.0715 24.3535 24.6307 24.2666ZM25.9653 23.127C25.74 23.127 25.688 23.0403 25.532 23.0403C25.345 23.0546 25.1695 23.1362 25.038 23.27C25.056 23.3219 25.0892 23.3672 25.1333 23.4C25.4583 23.452 25.6057 23.634 26 23.634C26.3943 23.634 26.5243 23.452 26.8667 23.4C26.9011 23.3609 26.9237 23.3128 26.9317 23.2613C26.8025 23.1268 26.628 23.045 26.442 23.0316C26.2383 23.0316 26.1863 23.1183 25.9653 23.1183V23.127ZM44.33 26.5936C44.3188 27.029 44.2797 27.4633 44.213 27.8937C42.133 28.236 41.3877 26.3813 39.2557 26.4766C39.3822 26.9303 39.4849 27.3903 39.5633 27.8546C41.327 27.8546 42.029 29.5013 43.992 29.2586C43.888 29.757 43.7667 30.2596 43.6237 30.745C42.0767 30.8966 41.5307 29.3583 39.7237 29.4016V30.602C41.2533 30.602 41.7473 31.9973 43.1903 31.9323C43.004 32.4263 42.8003 32.9073 42.5707 33.3796C41.5263 33.3276 41.1667 31.9843 39.572 32.0796C39.5287 32.4176 39.468 32.7643 39.3943 33.098C40.7723 32.9983 41.0757 34.2723 42.0593 34.372C41.8123 34.8356 41.5393 35.2863 41.249 35.724C40.664 35.4076 40.17 34.4586 39.0823 34.398C39.1993 34.047 39.299 33.6873 39.3857 33.3233C38.2412 33.3113 37.1425 32.8724 36.3047 32.0926C36.6123 30.3593 33.8997 28.574 33.8997 27.2956C33.8997 25.909 34.6017 25.129 34.6017 23.2656C34.5522 21.8029 33.9571 20.4116 32.9333 19.3656C32.7475 19.1745 32.5412 19.0044 32.318 18.8586C33.3262 19.9963 33.9095 21.4478 33.969 22.9666C33.969 24.7303 33.1457 25.662 33.1457 27.2783C33.1457 28.8946 35.5333 30.3333 35.5333 31.9973C35.5333 32.6603 35.3253 33.2973 34.6277 34.5713C35.5152 35.5028 36.7061 36.0867 37.986 36.218C38.1005 36.2344 38.2171 36.2123 38.3176 36.155C38.4181 36.0977 38.4965 36.0085 38.5407 35.9016C38.6273 35.7066 38.714 35.503 38.792 35.2863C39.7627 35.321 40.2047 36.1963 40.742 36.5473C40.4493 36.948 40.1354 37.3328 39.8017 37.7C39.4154 37.1499 38.8803 36.7215 38.259 36.465C38.129 36.712 37.999 36.9546 37.856 37.193C38.4145 37.4381 38.8837 37.8497 39.1993 38.3717C38.857 38.7357 38.493 39.078 38.116 39.4073C37.8581 38.9814 37.5142 38.6139 37.1063 38.3283C36.959 38.532 36.7987 38.7356 36.6383 38.9436C36.9938 39.2167 37.2889 39.5605 37.505 39.9533C37.0717 40.3 36.6383 40.6336 36.1573 40.9413C35.9147 39.0866 33.3667 37.7866 34.0513 35.62C33.7596 36.0444 33.5888 36.5402 33.5573 37.0543C33.5573 38.623 35.2257 39.871 35.36 41.4266C35.0177 41.639 34.658 41.8296 34.3027 42.0116C34.242 40.2783 32.4523 38.428 32.4523 37.0153C32.4523 35.4466 34.5063 33.8693 34.5063 32.0146C34.5063 30.16 32.1317 28.8773 32.1317 27.248C32.1317 25.6186 33.1457 24.7 33.1457 22.5983C33.1351 21.8309 32.9652 21.0741 32.6467 20.3759C32.3281 19.6777 31.868 19.0533 31.2953 18.5423C31.11 18.3717 30.9031 18.226 30.68 18.109C31.7547 19.2285 32.3528 20.7215 32.3483 22.2733C32.3483 24.232 31.1957 25.3066 31.1957 27.2436C31.1957 29.1806 33.527 30.2336 33.527 32.0103C33.527 33.787 31.3603 35.3123 31.3603 37.154C31.3603 38.8223 33.2713 40.495 33.2973 42.484C32.864 42.666 32.461 42.8307 31.9973 42.9823C32.2443 40.976 30.095 38.9046 30.095 37.271C30.095 35.477 32.344 33.943 32.344 32.0103C32.344 30.0776 30.0733 29.1936 30.0733 27.209C30.0733 25.2243 31.473 24.128 31.473 21.9483C31.469 21.14 31.2807 20.3433 30.9225 19.6187C30.5644 18.8941 30.0457 18.2607 29.406 17.7666L29.3237 17.706C29.211 17.6193 29.1157 17.706 29.1937 17.8273C30.0985 18.8878 30.5759 20.2473 30.5327 21.6406C30.5327 23.6426 28.925 25.2633 28.925 27.1873C28.925 29.4796 31.0917 30.1296 31.0917 32.006C31.0917 33.8823 28.7733 35.3816 28.7733 37.388C28.7733 39.2383 30.9747 41.288 30.6237 43.4286C30.1903 43.537 29.757 43.6366 29.2803 43.7146C29.7137 41.0626 27.547 39.1516 27.547 37.4183C27.547 35.5333 29.9433 33.8606 29.9433 32.019C29.9433 30.2856 28.21 29.718 27.9977 27.9456C27.9846 27.8361 27.9303 27.7357 27.8457 27.6648C27.7612 27.594 27.6528 27.558 27.5427 27.5643H27.5037C27.0173 27.7272 26.5119 27.8262 26 27.859C25.4759 27.8176 24.9599 27.7054 24.466 27.5253C24.3567 27.5085 24.245 27.5341 24.154 27.597C24.0629 27.6598 23.9994 27.7551 23.9763 27.8633C23.9763 27.8633 23.9763 27.8893 23.9763 27.9023C23.7553 29.679 22.0307 30.2423 22.0307 31.9756C22.0307 33.826 24.4313 35.4943 24.4313 37.3793C24.4313 39.1126 22.2647 41.0193 22.698 43.6756C22.2647 43.5933 21.7967 43.498 21.359 43.3853C20.9777 41.249 23.2093 39.195 23.2093 37.349C23.2093 35.36 20.8867 33.8563 20.8867 31.9756C20.8867 30.095 23.0533 29.4493 23.0533 27.157C23.0533 25.2156 21.4457 23.595 21.4457 21.6146C21.4002 20.2204 21.876 18.8592 22.7803 17.797C22.8627 17.693 22.7803 17.589 22.6547 17.6756L22.5723 17.7363C21.9331 18.233 21.4146 18.8681 21.0559 19.5938C20.6971 20.3195 20.5074 21.1171 20.501 21.9266C20.501 24.0933 21.9093 25.2113 21.9093 27.1873C21.9093 29.1633 19.6213 30.0646 19.6213 31.993C19.6213 33.9213 21.866 35.4597 21.866 37.2536C21.866 38.8873 19.6993 40.95 19.9593 42.965C19.526 42.8133 19.123 42.6486 18.6853 42.4666C18.6853 40.4776 20.618 38.8093 20.618 37.1366C20.618 35.2906 18.4513 33.787 18.4513 31.993C18.4513 30.199 20.7827 29.1416 20.7827 27.2263C20.7827 25.311 19.6213 24.2146 19.6213 22.256C19.6203 20.704 20.2197 19.2117 21.294 18.0916C21.0696 18.2066 20.8625 18.3524 20.6787 18.525C20.1034 19.0342 19.6401 19.6572 19.3179 20.3546C18.9957 21.0519 18.8216 21.8086 18.8067 22.5766C18.8067 24.6653 19.8163 25.61 19.8163 27.2263C19.8163 28.8426 17.446 30.134 17.446 31.993C17.446 33.852 19.5 35.4206 19.5 36.9936C19.5 38.402 17.7233 40.2783 17.6497 41.99C17.2857 41.8036 16.9347 41.613 16.5837 41.405C16.7223 39.845 18.3907 38.6013 18.3907 37.0283C18.3566 36.5147 18.1861 36.0196 17.8967 35.594C18.5813 37.7606 16.0507 39.0606 15.8037 40.911C15.3334 40.6093 14.8819 40.2794 14.4517 39.923C14.6706 39.5322 14.9652 39.189 15.3183 38.9133C15.151 38.7171 14.9948 38.5116 14.8503 38.298C14.4424 38.5835 14.0985 38.951 13.8407 39.377C13.4637 39.052 13.0997 38.7053 12.753 38.3413C13.07 37.8216 13.5389 37.4116 14.0963 37.167C13.962 36.9243 13.8277 36.686 13.702 36.439C13.0713 36.6892 12.5264 37.1166 12.1333 37.6696C11.8127 37.2999 11.505 36.9185 11.2103 36.5256C11.7477 36.1746 12.1897 35.2906 13.156 35.2603C13.2383 35.4596 13.325 35.6633 13.4073 35.8756C13.4527 35.9816 13.5314 36.0699 13.6315 36.127C13.7316 36.1841 13.8477 36.2069 13.962 36.192C15.2227 36.0578 16.3954 35.4823 17.2727 34.567C16.575 33.2973 16.367 32.656 16.367 31.967C16.367 30.2943 18.746 28.886 18.746 27.261C18.746 25.636 17.927 24.7043 17.927 22.9276C17.9802 21.4048 18.5642 19.9486 19.578 18.811C19.3516 18.9542 19.1436 19.1245 18.9583 19.318C17.9257 20.3596 17.3238 21.7522 17.2727 23.218C17.2727 25.064 17.9747 25.8613 17.9747 27.248C17.9747 28.5263 15.262 30.329 15.5697 32.045C14.7338 32.8257 13.6366 33.2661 12.493 33.28C12.571 33.6396 12.675 33.9993 12.7877 34.3503C11.6783 34.411 11.167 35.36 10.582 35.6763C10.2917 35.243 10.0187 34.7836 9.76733 34.3243C10.79 34.2376 11.1107 32.9636 12.467 33.0633C12.3933 32.7296 12.337 32.383 12.2893 32.045C10.699 31.9366 10.335 33.28 9.28633 33.345C9.06533 32.8726 8.853 32.3916 8.671 31.8976C10.1357 31.967 10.6297 30.5543 12.1593 30.5543V29.4016C10.3827 29.3713 9.84099 30.9096 8.28966 30.758C8.14666 30.2726 8.02533 29.77 7.92566 29.2716C9.88 29.5143 10.5863 27.8676 12.3413 27.8676C12.4191 27.4028 12.5233 26.9427 12.6533 26.4896C10.5213 26.3943 9.77599 28.249 7.72199 27.9066C7.66566 27.4733 7.63099 27.04 7.60499 26.6066C10.0273 26.8796 10.933 24.8733 13.1517 25.129C13.3588 24.6023 13.5976 24.0886 13.8667 23.5906C11.1063 23.1096 10.1703 25.441 7.59633 25.064C7.74307 20.2853 9.74451 15.7516 13.1766 12.4232C16.6087 9.09493 21.2018 7.23358 25.9827 7.23358C30.7636 7.23358 35.3566 9.09493 38.7887 12.4232C42.2208 15.7516 44.2223 20.2853 44.369 25.064C41.7993 25.415 40.8633 23.1096 38.0987 23.5906C38.3788 24.0876 38.625 24.603 38.8353 25.1333C41.0063 24.882 41.9293 26.8666 44.33 26.598V26.5936ZM18.057 18.8976C17.3404 18.6184 16.5671 18.5155 15.8024 18.5977C15.0376 18.6799 14.3039 18.9448 13.663 19.37C13.5706 18.7395 13.3527 18.1339 13.0223 17.5891C12.6918 17.0443 12.2554 16.5713 11.739 16.198C11.7131 16.1758 11.6809 16.1623 11.6469 16.1592C11.613 16.1562 11.5789 16.1637 11.5494 16.1808C11.5199 16.198 11.4965 16.2238 11.4823 16.2548C11.4682 16.2858 11.464 16.3205 11.4703 16.354C11.687 19.1056 10.075 21.4976 8.09466 23.5993C10.1313 24.2146 11.869 21.5843 14.521 22.503C15.4675 21.0936 16.6663 19.8714 18.057 18.8976ZM25.9653 17.2336C24.232 17.2336 22.8237 18.2 22.4467 19.448C22.4467 19.5433 22.4467 19.604 22.5723 19.5563C22.8997 19.4175 23.2524 19.3481 23.608 19.3526C23.9217 19.3351 24.2354 19.387 24.5268 19.5046C24.8182 19.6222 25.08 19.8026 25.2937 20.033C25.4623 20.5985 25.4623 21.2008 25.2937 21.7663C25.0033 21.7013 24.8993 21.476 24.622 21.476C24.3447 21.476 24.1237 21.6796 23.6513 21.6796C23.179 21.6796 23.1183 21.45 22.8107 21.45C22.503 21.45 22.3773 21.8313 22.3773 22.256C22.3773 24.1626 24.1107 26.78 25.987 26.78C27.8633 26.78 29.5923 24.18 29.5923 22.256C29.5923 21.8226 29.5057 21.463 29.1243 21.411C28.898 21.5969 28.6109 21.6926 28.3183 21.6796C27.8417 21.6796 27.703 21.476 27.43 21.476C27.157 21.476 27.1267 22.191 26.728 22.2343C26.4593 21.527 26.4379 20.7496 26.6673 20.0286C26.8777 19.7953 27.1372 19.6117 27.4273 19.491C27.7173 19.3704 28.0306 19.3157 28.3443 19.331C28.6985 19.3264 29.0498 19.3958 29.3757 19.5346C29.4883 19.5823 29.5273 19.5346 29.5013 19.422C29.107 18.1783 27.677 17.212 25.9697 17.212L25.9653 17.2336ZM28.6823 19.9333C28.4624 19.9258 28.2431 19.9626 28.0377 20.0415C27.8322 20.1205 27.6447 20.2399 27.4863 20.3926C27.4453 20.4956 27.4453 20.6104 27.4863 20.7133C28.2273 20.462 28.886 20.449 29.2197 20.8C29.2861 20.7484 29.3403 20.6829 29.3785 20.608C29.4167 20.5331 29.4379 20.4507 29.4407 20.3666C29.4407 20.1283 29.1893 19.9333 28.6823 19.9333ZM22.711 20.8C23.0707 20.4446 23.8203 20.462 24.6047 20.7523C24.6393 20.3666 23.946 19.9333 23.244 19.9333C22.737 19.9333 22.4857 20.1023 22.4857 20.3666C22.4886 20.4511 22.5104 20.5338 22.5493 20.6088C22.5883 20.6838 22.6436 20.7491 22.711 20.8ZM34.4803 14.3736C33.2136 14.4451 32.0012 14.9119 31.0137 15.7083C31.3986 14.6191 31.9214 13.5837 32.5693 12.6273C30.9954 12.7283 29.5086 13.3857 28.3747 14.482L27.5557 12.3153L29.3713 10.7076L26.91 10.5343L25.9653 8.26798L24.9947 10.5343L22.529 10.7076L24.375 12.3153L23.556 14.482C22.424 13.3765 20.9355 12.7099 19.357 12.6013C20.0032 13.5587 20.5259 14.5939 20.9127 15.6823C19.926 14.8849 18.7128 14.4193 17.446 14.352C18.2608 15.3786 18.9503 16.4988 19.5 17.6886C19.5105 17.7167 19.5266 17.7424 19.5472 17.7642C19.5678 17.786 19.5926 17.8035 19.62 17.8156C19.6474 17.8277 19.677 17.8342 19.707 17.8347C19.737 17.8353 19.7668 17.8298 19.7947 17.8186H19.8337C21.7388 16.8739 23.8366 16.3824 25.9632 16.3824C28.0897 16.3824 30.1875 16.8739 32.0927 17.8186C32.117 17.8345 32.1443 17.8452 32.1728 17.8503C32.2014 17.8554 32.2307 17.8547 32.259 17.8482C32.2873 17.8417 32.314 17.8296 32.3375 17.8127C32.3611 17.7957 32.3809 17.7741 32.396 17.7493C32.3983 17.735 32.3983 17.7203 32.396 17.706C32.9527 16.5146 33.6526 15.3955 34.4803 14.3736ZM37.4183 22.503C40.0703 21.5843 41.808 24.2103 43.8447 23.5993C41.8687 21.4976 40.2523 19.1056 40.469 16.354C40.4738 16.3204 40.4685 16.2862 40.4536 16.2557C40.4387 16.2252 40.415 16.1999 40.3856 16.1831C40.3561 16.1663 40.3223 16.1587 40.2885 16.1613C40.2547 16.164 40.2225 16.1768 40.196 16.198C39.6821 16.5707 39.2468 17.0413 38.9152 17.5826C38.5835 18.124 38.362 18.7255 38.2633 19.3526C37.6193 18.9335 36.8839 18.6753 36.1192 18.5998C35.3545 18.5244 34.5828 18.634 33.8693 18.9193C35.262 19.8863 36.465 21.101 37.4183 22.503Z" fill="white"/>
<path d="M37.8863 41.6953C38.1896 41.6867 38.4886 41.7686 38.7453 41.9304C39.002 42.0922 39.2047 42.3267 39.3278 42.6041C39.4508 42.8815 39.4886 43.1892 39.4363 43.4881C39.384 43.7869 39.244 44.0635 39.034 44.2826C38.8241 44.5017 38.5538 44.6534 38.2574 44.7185C37.961 44.7835 37.652 44.7589 37.3696 44.6479C37.0873 44.5368 36.8443 44.3443 36.6716 44.0948C36.499 43.8453 36.4044 43.55 36.4 43.2466C36.3977 43.0469 36.4348 42.8487 36.5091 42.6632C36.5835 42.4778 36.6936 42.3089 36.8332 42.166C36.9728 42.0232 37.1392 41.9092 37.3229 41.8307C37.5066 41.7522 37.7039 41.7106 37.9037 41.7083L37.8863 41.6953ZM37.8863 44.5293C38.1426 44.5425 38.397 44.4796 38.6175 44.3485C38.8381 44.2174 39.0149 44.024 39.1257 43.7926C39.2365 43.5612 39.2764 43.3021 39.2403 43.0481C39.2042 42.7941 39.0937 42.5565 38.9228 42.3651C38.7519 42.1737 38.5282 42.0372 38.2799 41.9727C38.0315 41.9083 37.7697 41.9187 37.5273 42.0028C37.2849 42.0869 37.0728 42.2408 36.9177 42.4451C36.7626 42.6495 36.6714 42.8952 36.6557 43.1513V43.2206C36.6463 43.5541 36.769 43.8777 36.997 44.1212C37.225 44.3646 37.54 44.5082 37.8733 44.5206L37.8863 44.5293ZM37.3013 42.328H37.9817C38.415 42.328 38.597 42.4926 38.597 42.8393C38.6005 42.9026 38.5912 42.9659 38.5695 43.0254C38.5478 43.0849 38.5143 43.1394 38.471 43.1856C38.4276 43.2318 38.3753 43.2687 38.3173 43.2941C38.2593 43.3195 38.1967 43.3328 38.1333 43.3333L38.6533 44.1653H38.35L37.8647 43.3636H37.5743V44.1653H37.3013V42.328ZM37.5743 43.121H37.856C38.0987 43.121 38.3327 43.121 38.3327 42.8263C38.3327 42.5316 38.116 42.549 37.9297 42.549H37.5743V43.121Z" fill="white"/>
</svg>
