<svg width="53" height="53" viewBox="0 0 53 53" fill="none" xmlns="http://www.w3.org/2000/svg">
<path d="M49.7449 0H3.25508C1.45735 0 0 1.45735 0 3.25508V49.7449C0 51.5426 1.45735 53 3.25508 53H49.7449C51.5426 53 53 51.5426 53 49.7449V3.25508C53 1.45735 51.5426 0 49.7449 0Z" fill="#B20D3B"/>
<path d="M13.1308 46.481C13.0822 46.3661 13.1573 46.2646 13.1882 46.163C13.9037 43.8722 14.6251 41.5814 15.3523 39.2906C16.1297 36.8232 16.9085 34.3528 17.6888 31.8795C17.6866 31.8545 17.6866 31.8294 17.6888 31.8044C17.7638 31.6233 17.755 31.5703 17.5342 31.4776C17.5342 31.4776 17.4944 31.5129 17.4856 31.5306C16.9983 32.7449 16.3133 33.8702 15.4583 34.8607C15.0491 35.3583 14.6192 35.8353 14.1687 36.2917C14.1138 36.3444 14.0711 36.4085 14.0436 36.4795C14.0162 36.5504 14.0046 36.6266 14.0097 36.7025C14.0097 37.789 14.0097 38.8799 14.0097 39.9664C14.0097 40.0238 14.0097 40.0856 14.0097 40.1475C14.0097 40.2093 13.9699 40.3109 13.8462 40.3065C13.5238 40.3065 13.197 40.3065 12.8702 40.3065H11.0417C10.8385 40.3065 10.8385 40.3065 10.8341 40.0901V39.9355C10.8341 35.6366 10.8341 31.3392 10.8341 27.0432C10.8436 26.9467 10.8269 26.8493 10.7857 26.7615C10.7445 26.6736 10.6803 26.5986 10.6 26.5441C9.01442 25.44 7.43325 24.3358 5.85208 23.2096L5.6445 23.055C5.74036 23.0264 5.84071 23.0159 5.94042 23.0241H10.6663C10.8518 23.0241 10.8562 23.0241 10.8606 22.8386V18.4881C10.9489 18.4484 10.9931 18.4881 11.0461 18.5191C11.554 18.7841 12.0663 19.0402 12.5743 19.3096C14.1428 20.1301 15.468 21.3486 16.4167 22.843C16.4454 22.8991 16.4901 22.9454 16.5452 22.9761C16.6002 23.0068 16.6631 23.0204 16.7259 23.0152C17.437 23.0152 18.1481 23.0152 18.8592 23.0152C19.1374 23.0152 19.0888 22.9843 19.0888 22.7723V18.6957C19.0764 18.5902 19.087 18.4832 19.1198 18.3821C20.0983 18.8453 21.0455 19.372 21.9552 19.9589C23.4613 15.4583 24.9718 10.9975 26.5 6.51898C26.5583 6.57438 26.5971 6.64723 26.6104 6.72656C27.9707 10.6868 29.3326 14.6486 30.6958 18.6118C30.6958 18.6692 30.7356 18.7266 30.7532 18.7841C30.7576 18.8138 30.7735 18.8406 30.7975 18.8588C30.8214 18.877 30.8515 18.885 30.8813 18.8812H34.0525C34.1276 18.8812 34.1673 18.9121 34.1673 18.9872V21.889C34.1673 21.9508 34.1673 22.0126 34.1673 22.0701C34.168 22.0828 34.166 22.0956 34.1613 22.1074C34.1566 22.1193 34.1494 22.13 34.1401 22.1388C34.1309 22.1477 34.1199 22.1544 34.1078 22.1585C34.0957 22.1626 34.0829 22.1641 34.0702 22.1628H32.1887C32.0948 22.1523 31.9997 22.1629 31.9104 22.1937L32.1754 22.9622C32.2063 23.0506 32.277 23.0373 32.3433 23.0373H37.1486C37.2325 23.0373 37.2722 23.0064 37.2722 22.9181C37.2722 22.7061 37.2722 22.4764 37.2722 22.2776C37.2722 22.2026 37.2413 22.1672 37.1663 22.1672H35.086C34.9005 22.1672 34.8961 22.1672 34.8961 21.9861C34.8961 21.0101 34.8961 20.034 34.8961 19.0579C34.8961 18.921 34.9358 18.8812 35.0683 18.8812C35.5763 18.8812 36.0798 18.8812 36.5833 18.8812H42.7666C42.8858 18.8812 42.9477 18.9121 42.93 19.0358V21.942C42.93 22.1584 42.93 22.1628 42.7048 22.1628H40.7614C40.5627 22.1628 40.5627 22.1628 40.5583 22.3616C40.5538 22.5603 40.5583 22.7193 40.5583 22.9004C40.5583 22.9976 40.5936 23.0417 40.6952 23.0329H47.3599V23.0771L47.1435 23.2405C45.0235 24.7333 42.902 26.2247 40.7791 27.7146C40.7029 27.7595 40.6404 27.8244 40.5984 27.9022C40.5563 27.98 40.5364 28.0679 40.5406 28.1562C40.5406 32.0959 40.5406 36.0356 40.5406 39.9752C40.5406 40.333 40.5847 40.2888 40.2314 40.2932H37.9833C38.1821 40.9999 38.425 41.6756 38.6237 42.3514C38.8225 43.0271 39.0654 43.7073 39.2642 44.3831C39.4629 45.0588 39.7058 45.7478 39.9134 46.4412C39.8295 46.4392 39.7492 46.4061 39.6882 46.3485L30.475 40.4699C30.3058 40.3555 30.105 40.2968 29.9008 40.3021C29.2251 40.3021 28.5493 40.3021 27.8736 40.3021C27.5732 40.3021 27.5909 40.333 27.5909 40.0326C27.5909 39.6351 27.5909 39.2421 27.5909 38.849C27.6001 38.7827 27.5885 38.7152 27.5576 38.6559C27.5268 38.5965 27.4782 38.5482 27.4187 38.5177C27.2022 38.3985 26.9991 38.2571 26.7782 38.1202C26.7421 38.1942 26.7297 38.2775 26.7429 38.3587C26.7429 38.9594 26.7429 39.5556 26.7429 40.1563C26.7429 40.3595 26.7429 40.3595 26.5442 40.3462C25.637 40.3152 24.7438 40.1129 23.9118 39.75C23.7749 39.6837 23.6866 39.75 23.585 39.8118L21.0542 41.4283L13.303 46.375C13.252 46.419 13.1915 46.4507 13.1263 46.4677L13.1308 46.481ZM21.5887 36.7643H21.6373L21.8095 37.0381C22.2267 37.7606 22.8086 38.3743 23.5077 38.8294C24.2069 39.2845 25.0036 39.5681 25.8331 39.6572C26.0627 39.6837 26.0672 39.6837 26.0672 39.4585V38.0451C26.0672 37.8199 26.0672 37.8155 25.8463 37.7625C25.1662 37.5936 24.5306 37.2796 23.9832 36.842C23.4359 36.4044 22.9896 35.8536 22.6752 35.2273C22.6414 35.1788 22.6275 35.1192 22.6366 35.0608C22.6456 35.0024 22.6769 34.9497 22.7238 34.9137C22.9446 34.6752 23.1654 34.4279 23.3597 34.1761C23.9569 33.4919 24.4699 32.7387 24.8879 31.9325C25.603 30.3913 25.8281 28.6678 25.5328 26.9946C25.2912 25.4401 24.6813 23.9658 23.754 22.695C22.8266 21.4242 21.6086 20.3937 20.2018 19.6895L19.716 19.4333V39.3966C19.716 39.5777 19.716 39.5821 19.9015 39.5821H21.3899C21.5843 39.5821 21.5887 39.5821 21.5887 39.3834C21.5887 38.6193 21.5887 37.8596 21.5887 37.0956V36.7643ZM11.4833 19.5261V39.3083C11.4833 39.3569 11.4833 39.4099 11.4833 39.4629C11.4833 39.6484 11.4833 39.6484 11.6644 39.6528H13.25C13.3428 39.6528 13.3957 39.6263 13.3869 39.5203C13.3781 39.4143 13.3869 39.4011 13.3869 39.3392C13.3869 38.3631 13.3869 37.3915 13.3869 36.4154C13.3848 36.3397 13.3986 36.2643 13.4275 36.1943C13.4564 36.1243 13.4998 36.0612 13.5547 36.0091C14.4163 35.1344 15.201 34.1873 15.9 33.178C16.554 32.256 17.0115 31.2093 17.244 30.1031C17.4765 28.9968 17.479 27.8546 17.2515 26.7473C16.9733 25.1799 16.3143 23.7048 15.3324 22.4518C14.3505 21.1988 13.0757 20.2062 11.6203 19.5614C11.5753 19.547 11.5296 19.5352 11.4833 19.5261ZM28.2269 29.5916V39.3525C28.2269 39.6705 28.1828 39.6484 28.5096 39.6484H33.2884C33.5093 39.6484 33.5137 39.6484 33.5137 39.4276V38.478C33.5137 38.2527 33.5137 38.0363 33.5137 37.8111C33.5137 37.7095 33.4783 37.6697 33.3812 37.6741C33.284 37.6786 33.2575 37.6741 33.2001 37.6741H30.4264C30.2144 37.6741 30.2144 37.6741 30.2144 37.4621C30.2144 36.835 30.2144 36.2122 30.2144 35.5851C30.2144 35.2803 30.1835 35.3156 30.4882 35.3156H33.2884C33.5093 35.3156 33.5137 35.3156 33.5137 35.0904V33.5666C33.5137 33.3502 33.5137 33.3458 33.284 33.3458H30.5103C30.1702 33.3458 30.2144 33.3856 30.2144 33.0411C30.2144 29.3016 30.2144 25.5607 30.2144 21.8183C30.2144 21.4738 30.1923 21.5224 30.5236 21.5224H33.2972C33.5137 21.5224 33.5181 21.5224 33.5181 21.3192V19.7336C33.5181 19.5437 33.5181 19.5393 33.3149 19.5393H28.4566C28.2534 19.5393 28.2534 19.5393 28.249 19.7292V29.5916H28.2269ZM37.9436 30.5986V39.432C37.9436 39.6837 37.9171 39.6705 38.1732 39.6705H39.5866C39.909 39.6705 39.909 39.6705 39.909 39.3436V21.8581C39.909 21.7786 39.909 21.7035 39.909 21.624C39.909 21.5445 39.9487 21.5003 40.0327 21.5047C40.1166 21.5091 40.1519 21.5047 40.2137 21.5047H42.0643C42.3337 21.5047 42.3072 21.5047 42.3072 21.2486C42.3072 20.7716 42.3072 20.2901 42.3072 19.8131C42.3072 19.5261 42.347 19.5393 42.029 19.5393H35.6999C35.5718 19.5393 35.5365 19.5879 35.5409 19.7071C35.5409 20.246 35.5409 20.7848 35.5409 21.3236C35.5409 21.5047 35.5409 21.5091 35.7308 21.5091H37.6344C37.9657 21.5091 37.9259 21.4738 37.9259 21.8183C37.9318 24.7451 37.9333 27.6719 37.9303 30.5986H37.9436ZM37.2767 30.2453C37.1929 30.2595 37.1156 30.2997 37.0558 30.3601L35.4614 31.482C35.2582 31.6233 35.2582 31.6233 35.3377 31.8706C35.9502 33.814 36.5626 35.7544 37.1751 37.6918C37.1945 37.7726 37.229 37.849 37.2767 37.9171V30.2453Z" fill="white"/>
<path d="M42.3205 39.3083C42.3241 39.4161 42.3059 39.5235 42.2671 39.6241C42.2283 39.7247 42.1696 39.8164 42.0946 39.8939C42.0196 39.9714 41.9298 40.033 41.8305 40.075C41.7312 40.1171 41.6245 40.1387 41.5167 40.1386C41.4064 40.141 41.2967 40.1212 41.1941 40.0805C41.0916 40.0398 40.9982 39.9789 40.9196 39.9015C40.841 39.8241 40.7787 39.7318 40.7363 39.6299C40.694 39.528 40.6725 39.4187 40.6731 39.3083C40.6724 39.1984 40.694 39.0894 40.7364 38.988C40.7789 38.8866 40.8413 38.7948 40.9201 38.7181C40.9989 38.6414 41.0923 38.5814 41.1948 38.5416C41.2973 38.5019 41.4068 38.4833 41.5167 38.4868C41.6241 38.4856 41.7306 38.5061 41.8299 38.5472C41.9291 38.5882 42.019 38.649 42.0942 38.7258C42.1693 38.8025 42.2281 38.8937 42.267 38.9939C42.3059 39.094 42.3241 39.201 42.3205 39.3083ZM42.1792 39.3083C42.1791 39.1731 42.1387 39.0409 42.0632 38.9287C41.9876 38.8165 41.8804 38.7293 41.755 38.6784C41.6297 38.6275 41.4921 38.6151 41.3597 38.6428C41.2273 38.6705 41.1061 38.7371 41.0118 38.834C40.9174 38.9309 40.854 39.0537 40.8298 39.1868C40.8056 39.3199 40.8216 39.4571 40.8758 39.5811C40.93 39.705 41.0199 39.81 41.1341 39.8825C41.2482 39.9551 41.3814 39.992 41.5167 39.9885C41.6943 39.985 41.8635 39.9117 41.9875 39.7844C42.1115 39.6571 42.1804 39.486 42.1792 39.3083Z" fill="white"/>
<path d="M13.1267 46.4766L13.1087 46.4803H13.1312L13.1267 46.4766Z" fill="white"/>
<path d="M21.5887 36.7423V37.1C21.5887 37.8641 21.5887 38.6238 21.5887 39.3878C21.5887 39.5822 21.5887 39.5866 21.3899 39.5866H19.9015C19.7204 39.5866 19.7204 39.5866 19.716 39.4011V19.4333L20.2018 19.6851C21.6054 20.3868 22.8212 21.4132 23.7484 22.6791C24.6756 23.945 25.2873 25.4139 25.5328 26.9638C25.8281 28.6369 25.603 30.3604 24.8879 31.9016C24.4699 32.7078 23.9569 33.4611 23.3598 34.1453C23.1522 34.397 22.9446 34.6444 22.7238 34.8829C22.6769 34.9188 22.6456 34.9715 22.6366 35.0299C22.6275 35.0883 22.6414 35.148 22.6752 35.1964C22.9896 35.8227 23.4359 36.3736 23.9832 36.8111C24.5306 37.2487 25.1662 37.5627 25.8463 37.7316C26.0672 37.7846 26.0672 37.789 26.0672 38.0143V39.4276C26.0672 39.6528 26.0672 39.6528 25.8331 39.6264C25.0036 39.5373 24.2069 39.2536 23.5077 38.7985C22.8086 38.3434 22.2267 37.7297 21.8095 37.0073L21.6417 36.7334L21.5887 36.7423ZM21.5887 33.5976C21.8767 33.2611 22.1437 32.9071 22.3881 32.5376C22.985 31.6972 23.3998 30.7413 23.6059 29.7313C23.812 28.7213 23.8049 27.6794 23.585 26.6723C23.355 25.4467 22.8101 24.3021 22.0038 23.3509C21.8846 23.214 21.7344 23.0992 21.5887 22.9623V33.5976Z" fill="#B20D3B"/>
<path d="M11.4833 19.5261C11.5281 19.5354 11.5724 19.5472 11.6158 19.5614C13.073 20.2051 14.3495 21.1971 15.333 22.4502C16.3165 23.7033 16.9769 25.179 17.2559 26.7473C17.4828 27.8549 17.4796 28.9973 17.2463 30.1036C17.013 31.2098 16.5548 32.2563 15.9 33.178C15.1924 34.1868 14.3988 35.1325 13.5283 36.0046C13.4733 36.0568 13.4299 36.1199 13.401 36.1899C13.3721 36.2599 13.3583 36.3353 13.3604 36.411C13.3604 37.3871 13.3604 38.3587 13.3604 39.3348C13.3604 39.3966 13.3604 39.4585 13.3604 39.5159C13.3604 39.5733 13.3163 39.6484 13.2235 39.6484H11.6688C11.4922 39.6484 11.4922 39.6484 11.4878 39.4585C11.4878 39.4055 11.4878 39.3525 11.4878 39.3039V19.5261H11.4833ZM13.3781 33.6594C13.4399 33.5931 13.4753 33.5578 13.5018 33.5225C13.8032 33.1484 14.0833 32.7576 14.3409 32.3521C14.9353 31.4421 15.3225 30.4126 15.4751 29.3365C15.6277 28.2604 15.5421 27.1639 15.2243 26.1246C14.9253 25.0013 14.3411 23.9743 13.5283 23.1433C13.4929 23.108 13.4664 23.0373 13.3869 23.0506L13.3781 33.6594Z" fill="#B20D3B"/>
<path d="M28.2269 29.5917V19.7293C28.2269 19.5438 28.2269 19.5394 28.4345 19.5394H33.2928C33.4916 19.5394 33.496 19.5394 33.496 19.7337V21.3016C33.496 21.5004 33.496 21.5048 33.2752 21.5048H30.5192C30.1879 21.5048 30.2144 21.4562 30.21 21.8007C30.21 25.5401 30.21 29.2811 30.21 33.0234C30.21 33.3679 30.1658 33.3282 30.5059 33.3282H33.2796C33.5048 33.3282 33.5092 33.3282 33.5092 33.549V35.0904C33.5092 35.3113 33.5092 35.3157 33.284 35.3157H30.475C30.1702 35.3157 30.2012 35.2804 30.2012 35.5851C30.2012 36.2123 30.2012 36.835 30.2012 37.4622C30.2012 37.6698 30.2012 37.6742 30.4132 37.6742H33.1868C33.2442 37.6742 33.3061 37.6742 33.3679 37.6742C33.4297 37.6742 33.5048 37.7095 33.5004 37.8111C33.5004 38.0319 33.5004 38.2528 33.5004 38.478V39.4276C33.5004 39.644 33.5004 39.6484 33.2752 39.6484H28.5096C28.1827 39.6484 28.2313 39.6484 28.2269 39.3525V29.5917Z" fill="#B20D3B"/>
<path d="M37.9303 30.5987C37.9303 27.669 37.9303 24.7407 37.9303 21.8139C37.9303 21.4694 37.9701 21.5048 37.6388 21.5048H35.7308C35.5498 21.5048 35.5409 21.5048 35.5409 21.3193C35.5409 20.7804 35.5409 20.2416 35.5409 19.7028C35.5409 19.5835 35.5718 19.5261 35.6999 19.5349H42.0158C42.3338 19.5349 42.294 19.5349 42.294 19.8088C42.294 20.2858 42.294 20.7672 42.294 21.2442C42.294 21.5092 42.3205 21.5004 42.0511 21.5004H40.1917C40.1298 21.5004 40.0724 21.5004 40.0106 21.5004C39.9488 21.5004 39.8869 21.5313 39.8869 21.6196C39.8869 21.7079 39.8869 21.7742 39.8869 21.8537V39.3084C39.8869 39.6352 39.8869 39.6352 39.5645 39.6352H38.16C37.9038 39.6352 37.9303 39.6352 37.9303 39.3967V30.5634V30.5987Z" fill="#B20D3B"/>
<path d="M37.2634 30.2453V37.917C37.2157 37.849 37.1813 37.7726 37.1618 37.6918C36.5494 35.7544 35.9399 33.814 35.3333 31.8706C35.2538 31.6233 35.2538 31.6233 35.457 31.482L37.0514 30.3601C37.1088 30.3013 37.1828 30.2612 37.2634 30.2453Z" fill="#B20D3B"/>
<path d="M42.1792 39.3083C42.18 39.4438 42.1404 39.5764 42.0653 39.6892C41.9903 39.8019 41.8834 39.8898 41.7581 39.9414C41.6329 39.993 41.4951 40.006 41.3624 39.9788C41.2297 39.9516 41.1081 39.8854 41.0133 39.7887C40.9185 39.6919 40.8547 39.5691 40.8301 39.4359C40.8055 39.3027 40.8213 39.1652 40.8754 39.041C40.9294 38.9168 41.0194 38.8116 41.1336 38.7388C41.2479 38.666 41.3812 38.629 41.5167 38.6326C41.6936 38.636 41.8621 38.7087 41.9859 38.8351C42.1098 38.9615 42.1792 39.1314 42.1792 39.3083ZM41.1854 39.3083C41.181 39.3848 41.181 39.4615 41.1854 39.538C41.1854 39.6175 41.128 39.7588 41.2737 39.7544C41.4195 39.75 41.3312 39.6219 41.3444 39.5468C41.3577 39.4717 41.3444 39.4408 41.4195 39.432C41.4446 39.426 41.4711 39.4295 41.4938 39.4417C41.5166 39.4539 41.5342 39.474 41.5432 39.4982C41.5829 39.5733 41.6227 39.6484 41.6668 39.7235C41.6813 39.7452 41.7033 39.7608 41.7285 39.7673C41.7538 39.7738 41.7806 39.7708 41.8037 39.7588C41.8744 39.7323 41.8347 39.6749 41.8037 39.6351C41.7587 39.5882 41.7335 39.5257 41.7335 39.4607C41.7335 39.3956 41.7587 39.3331 41.8037 39.2862C41.832 39.2489 41.8496 39.2045 41.8544 39.1579C41.8592 39.1113 41.8512 39.0642 41.8312 39.0219C41.8111 38.9795 41.7799 38.9435 41.7408 38.9177C41.7017 38.8919 41.6562 38.8773 41.6094 38.8755C41.1677 38.8136 41.1677 38.8446 41.1677 39.2553L41.1854 39.3083Z" fill="#B20D3B"/>
<path d="M21.6019 33.5976V22.9667C21.7477 23.1036 21.8978 23.2184 22.0171 23.3553C22.8234 24.3065 23.3683 25.4511 23.5982 26.6767C23.8181 27.6838 23.8253 28.7257 23.6191 29.7357C23.413 30.7457 22.9982 31.7016 22.4013 32.542C22.1568 32.91 21.8898 33.2625 21.6019 33.5976Z" fill="white"/>
<path d="M13.3825 33.6461V23.0461C13.462 23.0461 13.4885 23.1036 13.5238 23.1389C14.3366 23.9699 14.9209 24.9968 15.2198 26.1201C15.5377 27.1595 15.6233 28.256 15.4707 29.3321C15.318 30.4082 14.9308 31.4377 14.3365 32.3476C14.0789 32.7532 13.7987 33.1439 13.4973 33.5181C13.4797 33.5666 13.4443 33.5666 13.3825 33.6461ZM14.0185 31.5041C14.3449 30.9985 14.5797 30.4393 14.7119 29.8522C14.7914 29.5121 14.7914 29.5077 14.4911 29.3001L14.1775 29.0793C14.1333 29.0484 14.0936 28.9866 14.0185 29.0307V31.5041Z" fill="white"/>
<path d="M41.1854 39.3083V39.2553C41.1854 38.8446 41.2163 38.8136 41.6271 38.8755C41.6739 38.8773 41.7193 38.8919 41.7584 38.9177C41.7975 38.9435 41.8288 38.9796 41.8489 39.0219C41.8689 39.0643 41.8769 39.1113 41.8721 39.1579C41.8673 39.2045 41.8497 39.2489 41.8214 39.2862C41.7763 39.3331 41.7512 39.3956 41.7512 39.4607C41.7512 39.5257 41.7763 39.5883 41.8214 39.6351C41.8479 39.6749 41.8877 39.7323 41.8214 39.7588C41.7983 39.7708 41.7715 39.7738 41.7462 39.7673C41.7209 39.7608 41.699 39.7452 41.6845 39.7235C41.6403 39.6484 41.6006 39.5733 41.5608 39.4982C41.5518 39.474 41.5343 39.4539 41.5115 39.4417C41.4888 39.4295 41.4623 39.4261 41.4372 39.432C41.3709 39.432 41.3753 39.4938 41.3621 39.5468C41.3488 39.5998 41.4195 39.7544 41.2914 39.7544C41.1633 39.7544 41.2163 39.6175 41.2031 39.538C41.1928 39.4618 41.1869 39.3851 41.1854 39.3083ZM41.4902 39.2597C41.6403 39.2597 41.711 39.2244 41.6978 39.1361C41.6845 39.0477 41.605 39.0345 41.5255 39.0345C41.446 39.0345 41.3488 39.0345 41.3488 39.1449C41.3488 39.2553 41.4151 39.2421 41.4902 39.2376V39.2597Z" fill="white"/>
<path d="M14.0185 31.5041V29.0308C14.0936 28.9866 14.1333 29.0308 14.1775 29.0793L14.4911 29.3002C14.7914 29.5078 14.7914 29.5122 14.7119 29.8523C14.5797 30.4393 14.3449 30.9985 14.0185 31.5041Z" fill="#B20D3B"/>
<path d="M41.4902 39.2377C41.4151 39.2377 41.3444 39.2377 41.3488 39.1229C41.3532 39.008 41.446 39.0169 41.5255 39.0124C41.605 39.008 41.6845 39.0124 41.6977 39.114C41.711 39.2156 41.6403 39.2421 41.4902 39.2377Z" fill="#B20D3B"/>
</svg>
