<svg width="53" height="52" viewBox="0 0 53 52" fill="none" xmlns="http://www.w3.org/2000/svg">
<path d="M49.7449 0H3.25508C1.45735 0 0 1.42985 0 3.19367V48.8063C0 50.5701 1.45735 52 3.25508 52H49.7449C51.5426 52 53 50.5701 53 48.8063V3.19367C53 1.42985 51.5426 0 49.7449 0Z" fill="#902833"/>
<path d="M11.0417 24.9124V24.973C11.0417 25.259 11.1874 25.35 11.3199 25.35C11.4524 25.35 11.6158 25.259 11.6158 25.0077C11.6158 24.5397 10.8738 24.5744 10.8738 23.959C10.8738 23.5864 11.0814 23.387 11.3597 23.387C11.6379 23.387 11.8322 23.5734 11.8013 24.0024H11.5805C11.5805 23.7727 11.5231 23.621 11.3243 23.621C11.2007 23.621 11.0726 23.7034 11.0726 23.933C11.0726 24.3967 11.8146 24.3274 11.8146 24.9947C11.8146 25.428 11.5717 25.584 11.3022 25.584C10.812 25.584 10.812 25.1117 10.8164 24.9124H11.0417Z" fill="white"/>
<path d="M12.3711 23.4304H12.1591V25.5364H12.3711V23.4304Z" fill="white"/>
<path d="M13.9125 23.4304V25.5407H13.6254L12.9717 23.712H12.9673V25.5407H12.7818V23.4304H13.0777L13.7226 25.2374H13.727V23.4304H13.9125Z" fill="white"/>
<path d="M15.0167 24.011C15.0267 23.9075 15.01 23.8032 14.9681 23.7077C14.9464 23.6796 14.9183 23.6567 14.8862 23.6409C14.854 23.6252 14.8185 23.6169 14.7826 23.6167C14.7284 23.615 14.675 23.63 14.6299 23.6595C14.5847 23.689 14.5501 23.7316 14.5308 23.7814C14.484 23.9209 14.4675 24.0685 14.4822 24.2147V24.778C14.4822 25.2937 14.6192 25.3544 14.7782 25.3544C14.8444 25.3544 15.0387 25.324 15.0387 24.921H15.2596C15.2596 25.5884 14.8974 25.5884 14.7914 25.5884C14.5838 25.5884 14.2702 25.5884 14.2702 24.752V24.154C14.2702 23.556 14.4734 23.387 14.8002 23.387C15.1271 23.387 15.2419 23.6037 15.2419 24.011H15.0167Z" fill="white"/>
<path d="M28.1474 11.089C27.8423 11.1925 27.5776 11.3866 27.39 11.6444C27.2024 11.9022 27.1013 12.2109 27.1007 12.5277C27.1124 12.8789 27.2376 13.2173 27.4584 13.494L27.7632 13.9013C27.9249 14.1183 28.033 14.3693 28.0789 14.6344C28.1248 14.8995 28.1072 15.1714 28.0275 15.4286C27.9478 15.6859 27.8082 15.9214 27.6198 16.1166C27.4313 16.3118 27.1992 16.4613 26.9417 16.5533L25.44 16.1677L25.9214 15.7343C26.0453 15.6253 26.144 15.4916 26.211 15.3421C26.278 15.1927 26.3118 15.0309 26.3101 14.8677C26.311 14.5858 26.2074 14.3131 26.0186 14.1007L25.7845 13.8407C25.6046 13.6394 25.4719 13.4018 25.3959 13.1447C25.3198 12.8875 25.3022 12.6172 25.3443 12.3527C25.3865 12.0881 25.4873 11.8359 25.6396 11.6138C25.792 11.3917 25.9922 11.2052 26.2262 11.0673L28.1474 11.089Z" fill="white"/>
<path d="M22.6531 14.4083C22.654 14.6273 22.5885 14.8415 22.4651 15.0239C22.3417 15.2063 22.1659 15.3486 21.9599 15.4327C21.7539 15.5169 21.5271 15.5392 21.3082 15.4967C21.0893 15.4542 20.8882 15.3488 20.7305 15.194C20.5727 15.0392 20.4653 14.8419 20.422 14.6272C20.3787 14.4124 20.4014 14.1899 20.4872 13.9878C20.573 13.7857 20.718 13.6132 20.9039 13.4921C21.0898 13.371 21.3081 13.3068 21.5313 13.3077C21.8284 13.3088 22.1131 13.4252 22.3232 13.6313C22.5334 13.8375 22.6519 14.1168 22.6531 14.4083ZM21.5136 11.856C20.998 11.856 20.494 12.0061 20.0654 12.2872C19.6368 12.5683 19.3028 12.9679 19.1057 13.4353C18.9086 13.9027 18.8573 14.417 18.9582 14.9131C19.0591 15.4091 19.3077 15.8647 19.6726 16.2221C20.0374 16.5794 20.5022 16.8226 21.0079 16.9208C21.5137 17.0189 22.0378 16.9677 22.5139 16.7735C22.9899 16.5793 23.3966 16.2509 23.6824 15.8299C23.9682 15.4089 24.1203 14.9142 24.1194 14.4083C24.1183 13.731 23.8432 13.0818 23.3546 12.6033C22.8661 12.1248 22.2039 11.856 21.5136 11.856Z" fill="white"/>
<path d="M20.3652 36.3697C20.3661 36.5886 20.3007 36.8028 20.1773 36.9852C20.0539 37.1676 19.878 37.3099 19.672 37.394C19.4661 37.4782 19.2392 37.5005 19.0204 37.458C18.8015 37.4155 18.6004 37.3101 18.4426 37.1553C18.2849 37.0005 18.1775 36.8032 18.1342 36.5885C18.0909 36.3737 18.1135 36.1512 18.1993 35.9491C18.2851 35.747 18.4302 35.5745 18.616 35.4534C18.8019 35.3323 19.0203 35.2681 19.2434 35.269C19.5409 35.269 19.8263 35.3849 20.0367 35.5914C20.2471 35.7978 20.3652 36.0777 20.3652 36.3697ZM19.2257 33.8C18.7104 33.8 18.2066 33.9499 17.778 34.2309C17.3495 34.5118 17.0155 34.9111 16.8183 35.3783C16.621 35.8454 16.5694 36.3595 16.67 36.8554C16.7705 37.3514 17.0187 37.8069 17.3831 38.1645C17.7476 38.522 18.2119 38.7655 18.7174 38.8642C19.2229 38.9628 19.7468 38.9122 20.223 38.7187C20.6991 38.5252 21.1061 38.1975 21.3924 37.7771C21.6788 37.3566 21.8316 36.8623 21.8316 36.3567C21.8316 35.6786 21.557 35.0283 21.0684 34.5488C20.5797 34.0694 19.9169 33.8 19.2257 33.8Z" fill="white"/>
<path d="M17.2603 16.3237C17.11 16.2991 16.9561 16.3056 16.8085 16.343C16.6609 16.3803 16.523 16.4475 16.4035 16.5403C16.2875 16.6283 16.1903 16.7377 16.1174 16.8625C16.0445 16.9873 15.9974 17.1249 15.9788 17.2676C15.9601 17.4102 15.9702 17.5551 16.0086 17.6939C16.047 17.8327 16.1129 17.9627 16.2025 18.0765C16.2922 18.1903 16.4037 18.2857 16.5309 18.3572C16.6581 18.4287 16.7984 18.4749 16.9438 18.4932C17.0892 18.5115 17.2368 18.5016 17.3783 18.4639C17.5197 18.4262 17.6522 18.3616 17.7682 18.2737C17.8878 18.1885 17.9886 18.0805 18.0645 17.9561C18.1404 17.8318 18.1898 17.6936 18.2099 17.55L19.6718 17.693C19.6152 18.1924 19.4081 18.6638 19.077 19.0472C18.7459 19.4305 18.3059 19.7082 17.8131 19.8449C17.3203 19.9815 16.7971 19.9709 16.3105 19.8144C15.8239 19.6579 15.3959 19.3625 15.0812 18.9661C14.7665 18.5697 14.5795 18.0902 14.544 17.589C14.5085 17.0877 14.6261 16.5875 14.8818 16.1522C15.1376 15.7169 15.5198 15.3663 15.9797 15.1452C16.4395 14.9241 16.9562 14.8426 17.4635 14.911L17.2603 16.3237Z" fill="white"/>
<path d="M16.6641 32.9334C16.684 32.7529 16.6578 32.5704 16.5877 32.4023C16.5177 32.2343 16.406 32.0861 16.2629 31.971C16.1198 31.8559 15.9497 31.7777 15.768 31.7434C15.5863 31.7091 15.3987 31.7197 15.2223 31.7744C15.0458 31.8291 14.8861 31.9261 14.7575 32.0566C14.6288 32.1871 14.5354 32.347 14.4856 32.5219C14.4358 32.6967 14.4312 32.881 14.4723 33.058C14.5134 33.235 14.5988 33.3992 14.7208 33.5357C14.9161 33.7531 15.1903 33.8868 15.4848 33.9084L15.4186 35.347C14.904 35.3232 14.4084 35.1487 13.9958 34.846C13.5831 34.5434 13.2723 34.1264 13.1034 33.6489C12.9345 33.1713 12.9152 32.6551 13.0481 32.1667C13.1809 31.6783 13.4598 31.2401 13.8487 30.9086C14.2377 30.5772 14.7189 30.3676 15.2304 30.3068C15.7418 30.2461 16.2601 30.3371 16.7184 30.568C17.1767 30.7989 17.5541 31.1591 17.8018 31.6024C18.0495 32.0456 18.1563 32.5514 18.1083 33.0547L16.6641 32.9334Z" fill="white"/>
<path d="M33.6064 12.6533L30.2277 11.414L29.7683 12.6317L30.7488 12.9913L29.4901 16.2977L30.9078 16.8133L32.1622 13.507L33.1427 13.8667L33.6064 12.6533Z" fill="white"/>
<path d="M33.7389 17.7277L33.0588 18.161L31.8 17.0213L36.4287 14.495L37.7537 15.7257L35.5144 20.4273L34.2645 19.279L34.6753 18.5857L33.7389 17.7277ZM34.7283 17.0733L35.2671 17.5717L36.0753 16.198L34.7283 17.0733Z" fill="white"/>
<path d="M26.2659 37.3707L26.4161 36.1097L23.2052 35.75L22.6398 40.4473L24.1106 40.6163L24.3314 38.805L25.8507 38.974L25.9788 37.9383L24.4551 37.7693L24.5257 37.18L26.2659 37.3707Z" fill="white"/>
<path d="M31.0668 36.517L30.74 35.2863L27.6174 36.088L28.8232 40.6683L30.2542 40.3043L29.7904 38.5407L31.2744 38.155L31.0094 37.1453L29.5254 37.5266L29.3752 36.9546L31.0668 36.517Z" fill="white"/>
<path d="M34.7813 36.361L35.9914 35.425L35.3289 34.5974L34.1143 35.5377L33.7522 35.087L35.1478 34.0124L34.3484 33.007L31.8 34.9787L34.7724 38.6967L35.0595 38.4714L37.3253 36.725L36.5126 35.7154L35.1213 36.79L34.7813 36.361Z" fill="white"/>
<path d="M38.3632 32.4307L39.1317 31.122L38.2042 30.5933L37.4313 31.9063L36.9233 31.616L37.8155 30.1123L36.6937 29.471L35.0683 32.227L39.2333 34.6017L39.4143 34.2853L40.863 31.8413L39.7279 31.1957L38.8358 32.7037L38.3632 32.4307Z" fill="white"/>
<path d="M15.5687 25.5407V23.4304H16.4212V23.6644H15.7807V24.3447H16.377V24.5744H15.7807V25.3067H16.4344V25.5407H15.5687Z" fill="white"/>
<path d="M37.7581 25.5406H37.5417V23.8073L37.3032 24.011V23.7553C37.4007 23.6831 37.4909 23.6018 37.5726 23.5126H37.7537L37.7581 25.5406Z" fill="white"/>
<path d="M39.2774 24.5354C39.2774 25.064 39.2774 25.584 38.8357 25.584C38.5972 25.584 38.4383 25.376 38.4427 25.0554H38.6547C38.6547 25.2027 38.6988 25.3587 38.8357 25.3587C39.0389 25.3587 39.0522 25.0727 39.0522 24.5527C39.036 24.6106 38.9999 24.6613 38.95 24.696C38.9 24.7308 38.8394 24.7475 38.7783 24.7434C38.6547 24.7434 38.4162 24.6567 38.4162 24.102C38.4162 23.6687 38.6282 23.4824 38.8578 23.4824C39.2995 23.4824 39.2995 23.9894 39.2995 24.5354H39.2774ZM38.6591 24.102C38.6591 24.3014 38.6856 24.5354 38.8711 24.5354C39.0566 24.5354 39.0831 24.3144 39.0831 24.102C39.0831 23.8897 39.0522 23.6687 38.8711 23.6687C38.69 23.6687 38.6591 23.907 38.6591 24.102Z" fill="white"/>
<path d="M39.6572 23.5126H40.4787V23.7466L40.0547 25.5406H39.8162L40.2623 23.7466H39.6572V23.5126Z" fill="white"/>
<path d="M41.5167 25.5406H41.3047V23.8073L41.0706 24.011V23.7553C41.1666 23.6829 41.2554 23.6016 41.3356 23.5126H41.5167V25.5406Z" fill="white"/>
<path d="M22.4455 33.0286C21.7609 32.5086 21.8095 30.615 21.8095 30.615C21.8197 29.5152 22.1096 28.4353 22.6531 27.4733C23.0188 26.7896 23.5013 26.1726 24.0797 25.649C25.3119 24.6003 26.9682 24.427 27.9752 25.3023C28.303 25.5885 28.5392 25.9618 28.6553 26.377C29.2144 26.4791 29.7193 26.7705 30.0819 27.2003C30.9653 28.197 30.7974 29.8003 29.733 31.0266C29.22 31.6201 28.6254 32.1408 27.9663 32.5736C26.973 33.1769 25.8348 33.5118 24.6671 33.5443C22.9932 33.5443 22.4588 33.0286 22.4588 33.0286H22.4455ZM28.2667 26.8103C27.1485 27.3857 26.2122 28.2504 25.5593 29.3106C24.8741 30.5421 23.9638 31.6394 22.8739 32.5476C22.8739 32.5476 22.5648 32.786 22.8739 32.786C22.8739 32.786 23.3156 32.7513 24.2254 31.9193C24.9735 31.2459 25.627 30.478 26.1688 29.6356C26.7637 28.6393 27.5082 27.7365 28.3771 26.9576C28.395 26.9476 28.4084 26.9314 28.415 26.9123C28.4215 26.8931 28.4206 26.8722 28.4124 26.8537C28.399 26.8265 28.3757 26.8052 28.3471 26.794C28.3185 26.7828 28.2867 26.7824 28.2578 26.793" fill="white"/>
<path d="M26.9417 20.9907C26.7506 20.6138 26.4668 20.2897 26.116 20.0475C25.7651 19.8054 25.3582 19.653 24.9321 19.604C24.3662 19.546 23.7975 19.684 23.3244 19.994C22.9499 19.7756 22.5187 19.6687 22.0833 19.6864C20.7583 19.747 19.6718 20.9864 19.5349 22.5984C19.4946 23.369 19.5856 24.1408 19.8043 24.882C20.0969 25.9518 20.6588 26.9323 21.4385 27.7334C21.4385 27.7334 21.6063 27.911 21.8051 28.093C22.145 27.1651 22.7017 26.3281 23.4304 25.649C23.3642 25.2157 23.267 24.7824 23.1345 24.2364C22.85 23.0299 22.9049 21.7702 23.2935 20.592C23.3078 20.5645 23.3319 20.5431 23.3612 20.5319C23.3905 20.5208 23.423 20.5205 23.4525 20.5314C23.4711 20.5398 23.4862 20.5544 23.4951 20.5726C23.5039 20.5908 23.5061 20.6115 23.5011 20.631C23.4354 21.7817 23.5456 22.9356 23.8279 24.0544C23.9084 24.4089 23.9673 24.7677 24.0046 25.129C24.5702 24.7037 25.2352 24.4237 25.9391 24.3144C25.7801 23.9769 25.7074 23.6066 25.7271 23.2354C25.7485 22.7965 25.8684 22.3677 26.0784 21.9797C26.2884 21.5916 26.5831 21.2539 26.9417 20.9907Z" fill="white"/>
<path d="M28.9822 26.0694C28.0988 24.063 26.3322 24.297 26.3322 24.297C26.0672 23.1357 26.3322 22.009 27.2155 21.4284C27.5768 21.1922 28.0004 21.0643 28.4345 21.06C28.6818 20.5597 29.1009 20.1608 29.6182 19.9334C30.8151 19.3484 32.3521 19.9334 33.2663 21.2334C33.7182 21.8644 34.0779 22.5543 34.3352 23.283C34.6728 24.3643 34.7125 25.5141 34.45 26.6154C34.0083 28.1927 33.39 28.574 33.39 28.574C32.8468 29.0074 31.5659 28.7344 31.0757 28.6174C31.0655 28.0233 30.853 27.4497 30.472 26.988C30.091 26.5262 29.5634 26.2028 28.9733 26.0694H28.9822ZM28.7834 21.502C29.0542 22.6856 29.6481 23.7746 30.5015 24.6524C31.5107 25.6069 32.3352 26.733 32.9351 27.976C32.9351 27.976 33.0853 28.327 33.1692 28.015C33.1692 28.015 33.2443 27.612 32.6966 26.5417C32.2396 25.677 31.6678 24.8756 30.9962 24.1584C30.1868 23.3551 29.5063 22.4361 28.9778 21.4327C28.9718 21.4137 28.9593 21.3972 28.9424 21.3862C28.9255 21.3751 28.9052 21.3701 28.885 21.372C28.855 21.3782 28.8283 21.3947 28.8097 21.4186C28.791 21.4424 28.7817 21.472 28.7834 21.502Z" fill="white"/>
<path d="M43.725 26C43.725 29.3425 42.7148 32.6099 40.8221 35.3891C38.9294 38.1683 36.2392 40.3344 33.0917 41.6135C29.9443 42.8927 26.4809 43.2273 23.1396 42.5752C19.7982 41.9232 16.729 40.3136 14.3201 37.9501C11.9111 35.5866 10.2706 32.5753 9.60598 29.297C8.94134 26.0187 9.28246 22.6207 10.5862 19.5326C11.8899 16.4446 14.0977 13.8051 16.9303 11.9481C19.7629 10.0911 23.0932 9.09998 26.5 9.09998C31.0684 9.09998 35.4496 10.8805 38.6799 14.0499C41.9102 17.2192 43.725 21.5178 43.725 26ZM26.5 9.55498C23.1796 9.55498 19.9339 10.5213 17.1734 12.3316C14.4129 14.142 12.2618 16.715 10.9921 19.7251C9.72248 22.7353 9.39141 26.0473 10.0408 29.2421C10.6902 32.4369 12.2908 35.371 14.6402 37.673C16.9896 39.975 19.9822 41.5416 23.2393 42.1745C26.4964 42.8075 29.8717 42.4783 32.938 41.2286C36.0044 39.979 38.6241 37.865 40.4656 35.1543C42.3071 32.4435 43.2877 29.2577 43.2833 26C43.2833 23.8386 42.8491 21.6983 42.0053 19.7017C41.1616 17.7051 39.925 15.8913 38.3663 14.3639C36.8075 12.8366 34.9572 11.6257 32.921 10.8006C30.8849 9.97539 28.703 9.55213 26.5 9.55498Z" fill="white"/>
<path d="M35.775 26C35.775 27.7998 35.231 29.5592 34.2119 31.0557C33.1927 32.5522 31.7442 33.7186 30.0494 34.4073C28.3546 35.0961 26.4897 35.2763 24.6905 34.9252C22.8914 34.574 21.2387 33.7074 19.9416 32.4347C18.6444 31.162 17.7611 29.5406 17.4032 27.7753C17.0453 26.0101 17.229 24.1804 17.931 22.5176C18.633 20.8548 19.8218 19.4336 21.3471 18.4337C22.8723 17.4337 24.6656 16.9 26.5 16.9C28.9599 16.9 31.319 17.8588 33.0584 19.5654C34.7978 21.2719 35.775 23.5866 35.775 26ZM26.5 17.264C24.739 17.264 23.0175 17.7764 21.5532 18.7363C20.0889 19.6962 18.9477 21.0606 18.2738 22.6569C17.5998 24.2532 17.4235 26.0097 17.7671 27.7043C18.1106 29.399 18.9587 30.9556 20.2039 32.1773C21.4492 33.3991 23.0357 34.2311 24.7629 34.5682C26.4901 34.9052 28.2804 34.7322 29.9074 34.071C31.5344 33.4098 32.925 32.2901 33.9034 30.8535C34.8818 29.4169 35.404 27.7278 35.404 26C35.4028 23.6834 34.4644 21.4621 32.7948 19.824C31.1252 18.1859 28.8611 17.2652 26.5 17.264Z" fill="white"/>
<path d="M37.8817 18.0483H37.7051V17.9747H38.1379V18.0483H37.9568V18.5683H37.8817V18.0483Z" fill="white"/>
<path d="M38.7783 18.0353L38.6061 18.5683H38.5354L38.3632 18.0353V18.5683H38.2881V17.9747H38.4206L38.5752 18.4643H38.5796L38.7298 17.9747H38.8534V18.5683H38.7783V18.0353Z" fill="white"/>
</svg>
