<svg width="53" height="52" viewBox="0 0 53 52" fill="none" xmlns="http://www.w3.org/2000/svg">
<path d="M49.7449 0H3.25508C1.45735 0 0 1.42985 0 3.19367V48.8063C0 50.5701 1.45735 52 3.25508 52H49.7449C51.5426 52 53 50.5701 53 48.8063V3.19367C53 1.42985 51.5426 0 49.7449 0Z" fill="#491225"/>
<path d="M46.2425 24.414C45.9972 24.1249 45.6973 23.885 45.3592 23.7077C44.3306 23.1421 43.2421 22.6887 42.1129 22.3557C40.442 21.8324 38.7299 21.4454 36.994 21.1987C35.9252 21.047 34.8519 20.9084 33.7743 20.8174C32.595 20.7177 31.4113 20.657 30.2409 20.618C29.2207 20.5877 28.2004 20.579 27.1802 20.618C25.8552 20.657 24.5302 20.7177 23.2405 20.8217C21.9508 20.9257 20.723 21.0644 19.4731 21.255C16.8073 21.6124 14.1862 22.2383 11.6512 23.1227C10.3241 23.5715 9.05759 24.1769 7.87933 24.9254C7.61875 25.0987 7.37142 25.2894 7.1285 25.48C7.05444 25.5358 6.99783 25.6109 6.96508 25.6967C6.96132 25.7306 6.96531 25.765 6.97677 25.7972C6.98823 25.8294 7.00687 25.8588 7.03133 25.883C7.03133 25.9047 7.14617 25.883 7.18592 25.8527C8.31726 24.9913 9.57966 24.3099 10.9268 23.8334C11.8102 23.4997 12.6935 23.2397 13.5768 22.9667L13.7093 22.9364C13.8507 23.5517 13.9964 24.1627 14.151 24.7867C13.6065 24.6399 13.0307 24.6474 12.4903 24.8084C11.4266 25.0592 10.3794 25.3732 9.3545 25.7487C8.91283 25.8874 8.50208 26.0217 8.06925 26.1257C7.76315 26.1993 7.44344 26.1993 7.13733 26.1257C7.03517 26.1063 6.94023 26.0603 6.8625 25.9924C6.78477 25.9245 6.72714 25.8373 6.69567 25.74C5.91833 23.6384 5.13217 21.541 4.48733 19.396C4.37342 19.0701 4.32249 18.7263 4.33717 18.382C4.39014 17.974 4.59647 17.6 4.91575 17.3334C5.5716 16.7015 6.32603 16.1763 7.15058 15.7777C8.6004 15.0817 10.1207 14.5371 11.6865 14.1527C13.2773 13.7338 14.8903 13.4011 16.5183 13.156C17.7462 12.9697 18.9784 12.792 20.2107 12.6447C21.2 12.5234 22.1923 12.428 23.1875 12.3587C24.4242 12.272 25.6653 12.2027 26.9019 12.1594C27.825 12.1334 28.7702 12.1334 29.6977 12.1334C30.7798 12.1594 31.8618 12.194 32.9395 12.272C34.2071 12.3587 35.4703 12.48 36.729 12.6187C38.8549 12.8459 40.9613 13.2239 43.0316 13.7497C44.2523 14.0397 45.4371 14.4596 46.5649 15.002C46.9495 15.2091 47.3198 15.4407 47.6735 15.6954C47.9096 15.8436 48.0894 16.0639 48.1852 16.3223C48.281 16.5808 48.2874 16.863 48.2035 17.1254C47.9738 18.0354 47.7353 18.941 47.488 19.8424C47.0817 21.333 46.6621 22.8237 46.2513 24.3144C46.2513 24.3404 46.2513 24.3664 46.2204 24.414H46.2425ZM16.7833 20.046V19.9854C16.4653 18.3864 16.1429 16.7917 15.8293 15.1927C15.8293 15.093 15.7587 15.0887 15.6792 15.106L14.7163 15.2967C14.6755 15.3027 14.6367 15.318 14.603 15.3413C14.5692 15.3646 14.5415 15.3953 14.522 15.431C14.0803 16.1807 13.6387 16.9304 13.197 17.6757L13.1131 17.8187L12.9806 17.7364C12.3446 17.3464 11.6953 16.9737 11.0814 16.5577C10.9387 16.4436 10.7665 16.3706 10.5841 16.3469C10.4016 16.3232 10.216 16.3496 10.0479 16.4234C9.83832 16.5 9.62451 16.5651 9.4075 16.6184L10.9092 21.45L12.1679 21.0947C11.8897 20.1067 11.6114 19.1317 11.3288 18.122L11.5098 18.2304L13.3118 19.409C13.3407 19.4331 13.375 19.4502 13.4118 19.4589C13.4486 19.4676 13.487 19.4678 13.524 19.4594C13.5609 19.451 13.5953 19.4342 13.6244 19.4104C13.6535 19.3866 13.6765 19.3565 13.6917 19.3224L14.7252 17.4764L14.8444 17.2814C15.0741 18.304 15.2861 19.2964 15.5158 20.3147L16.7966 20.059L16.7833 20.046ZM38.7607 16.822L38.8667 16.978C39.5144 18.0614 40.1652 19.1447 40.8188 20.228C40.8453 20.2714 40.8807 20.3364 40.9248 20.345C41.2738 20.4317 41.6315 20.5054 41.9937 20.5834C42.3956 18.941 42.7975 17.316 43.1994 15.6694L41.8038 15.3617C41.5785 16.3627 41.3621 17.3464 41.1324 18.3604L41.075 18.2217C40.4169 17.1644 39.75 16.107 39.1007 15.0454C39.064 14.9702 39.0081 14.9056 38.9385 14.8578C38.8688 14.8099 38.7878 14.7805 38.7033 14.7724C38.3764 14.742 38.0496 14.6814 37.7095 14.6294C37.4533 16.302 37.1972 17.9617 36.941 19.6257L38.266 19.825C38.4471 18.8197 38.6193 17.8317 38.8004 16.7917L38.7607 16.822ZM18.6207 14.625L17.2029 14.8504C17.3708 15.7777 17.5342 16.679 17.6843 17.5847C17.7228 17.9028 17.8316 18.2088 18.0033 18.4813C18.1749 18.7537 18.4053 18.9861 18.6781 19.162C19.2403 19.5018 19.9049 19.6403 20.5593 19.5543C21.2138 19.4682 21.8177 19.1627 22.2688 18.6897C22.4716 18.4784 22.6267 18.2276 22.7241 17.9536C22.8215 17.6796 22.859 17.3885 22.8342 17.0994C22.7768 16.3974 22.7149 15.6997 22.6487 14.9977C22.6487 14.729 22.6001 14.4647 22.5692 14.1787L21.1205 14.3C21.1191 14.3159 21.1191 14.3318 21.1205 14.3477C21.2265 15.2707 21.3281 16.198 21.4385 17.1254C21.4797 17.3435 21.4492 17.5688 21.3516 17.7689C21.254 17.9691 21.0942 18.1336 20.8953 18.239C20.747 18.3093 20.5894 18.3589 20.4271 18.3864C20.2751 18.4304 20.115 18.4412 19.9583 18.4181C19.8015 18.395 19.6518 18.3385 19.5197 18.2526C19.3876 18.1667 19.2762 18.0535 19.1933 17.9209C19.1105 17.7883 19.0583 17.6395 19.0403 17.485C18.9298 16.8697 18.8459 16.2544 18.7532 15.6347C18.7002 15.301 18.6472 14.9674 18.5942 14.612L18.6207 14.625ZM27.9531 16.25L25.3782 16.3107C25.3782 15.8774 25.3384 15.5047 25.3208 15.0887L28.4124 15.0324V13.9404C26.9063 13.9404 25.4179 13.9794 23.9163 14.0834C24.0311 15.7734 24.1459 17.446 24.2563 19.123L25.4974 19.0667C25.4974 18.5164 25.4533 17.9747 25.4268 17.42L26.4514 17.381H27.8294C27.8692 17.381 27.9487 17.3377 27.9487 17.3117C27.9487 16.978 27.9487 16.6444 27.9487 16.276L27.9531 16.25ZM33.8758 14.222C32.3653 14.092 30.8769 14.0097 29.3753 13.988C29.3443 15.6824 29.309 17.355 29.2781 19.0537H30.5368C30.5368 18.512 30.5854 17.9747 30.6075 17.42L33.1294 17.5674C33.1603 17.199 33.1913 16.848 33.2222 16.4797L30.6517 16.328C30.6517 15.925 30.6826 15.5307 30.7003 15.106L33.7919 15.2924C33.8228 14.937 33.8582 14.5904 33.8891 14.222H33.8758ZM34.874 14.313C34.6929 15.9987 34.5163 17.667 34.3352 19.3354L35.6602 19.4827C35.8751 17.81 36.093 16.1388 36.3138 14.469L34.8652 14.3L34.874 14.313ZM40.7438 21.255V21.307C42.5104 21.7967 44.3168 22.308 45.9068 23.296C45.9233 23.2597 45.9366 23.222 45.9466 23.1834C46.3397 21.8097 46.7372 20.4317 47.1258 19.0537C47.3202 18.3734 47.5013 17.693 47.6823 17.0084C47.7169 16.8837 47.7025 16.7508 47.642 16.6361C47.5814 16.5213 47.4792 16.433 47.3555 16.3887C47.344 16.4077 47.3351 16.4281 47.329 16.4494C46.8226 18.2867 46.3117 20.1226 45.7964 21.957C45.7526 22.1207 45.698 22.2813 45.633 22.438C45.5712 22.5767 45.5005 22.5984 45.368 22.542C44.2044 22.0755 43.0034 21.7044 41.7772 21.4327C41.4372 21.3634 41.0971 21.3157 40.757 21.255H40.7438ZM7.37142 24.3794C7.37142 24.336 7.3405 24.297 7.32725 24.258C7.049 23.491 6.7575 22.724 6.48808 21.9527C6.15242 21.0037 5.83442 20.0504 5.512 19.097C5.42562 18.8784 5.40425 18.6401 5.45037 18.41C5.4965 18.1799 5.60823 17.9673 5.77258 17.797C5.96237 17.5877 6.16597 17.3908 6.38208 17.2077C7.13496 16.6145 7.95798 16.1126 8.83333 15.7127L9.063 15.5914C9.01834 15.5782 8.97074 15.5782 8.92608 15.5914C8.00747 15.8513 7.14522 16.2743 6.38208 16.8394C5.91177 17.1622 5.4947 17.5538 5.14542 18.0007C5.0496 18.122 4.98246 18.2627 4.94885 18.4126C4.91524 18.5625 4.916 18.7178 4.95108 18.8674C4.98673 19.0478 5.03394 19.2258 5.09242 19.4004C5.65775 20.995 6.23192 22.5854 6.80167 24.167L6.98275 24.661L7.37583 24.3794" fill="white"/>
<path d="M34.5604 38.4844L34.8298 36.6297L35.775 36.8334C37.3552 37.1571 38.8921 37.6588 40.3551 38.3284C40.7968 38.5277 41.1678 38.7617 41.5697 39.013C41.6448 39.052 41.7198 39.1474 41.817 39.0477C41.8347 39.0243 41.8473 38.9976 41.8542 38.9693C41.8611 38.9409 41.8621 38.9115 41.8572 38.8828C41.8522 38.8541 41.8414 38.8266 41.8254 38.8021C41.8094 38.7776 41.7885 38.7565 41.764 38.74C41.6243 38.6314 41.4767 38.5329 41.3223 38.4454C40.4084 37.9186 39.4364 37.4956 38.425 37.1844C37.0926 36.7548 35.7281 36.4274 34.344 36.205C32.8832 35.9648 31.4077 35.82 29.9273 35.7717C29.1323 35.7457 28.3373 35.711 27.5423 35.737C26.2173 35.7847 24.9321 35.8454 23.6292 35.9537C21.6798 36.1132 19.7474 36.4321 17.8522 36.907C16.3334 37.2678 14.8618 37.7985 13.4664 38.4887C12.7398 38.8496 12.0715 39.3139 11.4833 39.8667C11.4127 39.6457 11.342 39.4334 11.2758 39.234C10.6 37.323 9.97284 35.412 9.33684 33.4967C9.2791 33.312 9.23337 33.1238 9.19992 32.9334C9.18705 32.849 9.19345 32.7628 9.21866 32.6811C9.24387 32.5994 9.28725 32.5243 9.34567 32.461C9.88612 31.8337 10.5521 31.3219 11.3023 30.9574C12.5354 30.3488 13.8348 29.8793 15.1757 29.5577C16.7522 29.1391 18.3543 28.8193 19.9722 28.6C21.1912 28.4354 22.4102 28.2794 23.638 28.1667C24.7687 28.067 25.9082 28.0194 27.0433 27.9847C27.9266 27.9587 28.8099 27.9847 29.6933 27.9847C30.8902 28.0367 32.0871 28.1234 33.2796 28.2187C34.7532 28.3443 36.2187 28.5482 37.6698 28.8297C39.1515 29.0858 40.6041 29.4835 42.0069 30.017C42.5678 30.2195 43.0903 30.5124 43.5528 30.8837C43.6959 31.0171 43.8274 31.1621 43.9458 31.317C44.0232 31.4247 44.0722 31.5496 44.0884 31.6804C44.1046 31.8112 44.0875 31.944 44.0386 32.0667L42.9786 35.789C42.6841 36.8146 42.3897 37.843 42.0953 38.8744C41.9848 39.247 41.8877 39.3077 41.4946 39.3077C40.8755 39.2615 40.2612 39.1673 39.6573 39.026C38.7209 38.818 37.7846 38.6187 36.8438 38.4454C36.2891 38.3233 35.7179 38.2897 35.1523 38.3457C34.9668 38.3717 34.7813 38.4237 34.5693 38.467L34.5604 38.4844ZM16.7038 33.098C16.8231 32.8987 16.9556 32.7037 17.0572 32.4914C17.1287 32.3582 17.1608 32.2081 17.1499 32.058C17.1352 31.8672 17.0655 31.6845 16.949 31.531C16.8325 31.3776 16.674 31.2598 16.4918 31.1914C16.1608 31.0686 15.798 31.0549 15.4583 31.1524C14.8842 31.291 14.3144 31.4557 13.7447 31.6204C13.409 31.7157 13.0822 31.8327 12.7465 31.941L14.3144 36.3047H14.3851L16.7524 35.5897C17.071 35.4984 17.3702 35.3516 17.6358 35.1564C17.7961 35.0551 17.9245 34.9118 18.0065 34.7428C18.0884 34.5738 18.1206 34.3857 18.0995 34.1998C18.0784 34.0138 18.0048 33.8372 17.8869 33.6901C17.7691 33.5429 17.6118 33.4309 17.4326 33.3667C17.1941 33.2714 16.9423 33.189 16.7038 33.1024V33.098ZM18.2011 30.4764C18.5368 31.993 18.868 33.5097 19.1993 35.0004L20.3608 34.7794C20.2593 34.2247 20.1577 33.6874 20.0605 33.1544C20.1297 33.1171 20.2087 33.1009 20.2874 33.1078C20.3661 33.1148 20.4408 33.1445 20.5022 33.1934C20.7318 33.358 20.9748 33.5097 21.2088 33.6744C21.5744 33.9524 21.9771 34.1799 22.4058 34.3504C22.636 34.438 22.8829 34.4753 23.1293 34.4595C23.3757 34.4438 23.6156 34.3755 23.8323 34.2594C23.8721 34.2594 23.9295 34.1814 23.9207 34.1467C23.8677 33.878 23.8058 33.6137 23.744 33.3364L23.5983 33.3797C23.3883 33.4645 23.1561 33.4812 22.9358 33.4274C22.5508 33.3104 22.1881 33.1317 21.8625 32.8987C21.8372 32.8804 21.8149 32.8585 21.7963 32.8337C21.8537 32.7904 21.9111 32.7557 21.9597 32.7124C22.2158 32.4567 22.4808 32.214 22.7193 31.941C22.8027 31.85 22.8655 31.7427 22.9035 31.6262C22.9416 31.5097 22.9541 31.3866 22.9402 31.265C22.9196 31.0461 22.8428 30.8359 22.7169 30.654C22.591 30.4721 22.4201 30.3245 22.2203 30.225C21.789 30.0131 21.2996 29.9432 20.8246 30.0257C20.2283 30.108 19.6321 30.212 19.0579 30.316C18.7841 30.3594 18.5103 30.4244 18.232 30.4764H18.2011ZM28.5317 30.5024V29.523C27.1007 29.4927 25.6697 29.523 24.2298 29.6444C24.3535 31.187 24.4757 32.7153 24.5964 34.229L28.461 34.1207V33.1717H25.6785C25.6785 32.8987 25.6476 32.6127 25.6343 32.305L27.9663 32.253C27.9663 31.98 27.9663 31.7157 27.9663 31.447C27.9663 31.3344 27.9354 31.2954 27.8162 31.2997L25.8508 31.3474H25.5858C25.5858 31.0787 25.5593 30.823 25.546 30.5414L28.5317 30.498V30.5024ZM40.2888 31.265C40.2812 31.2476 40.2708 31.2315 40.2579 31.2174L39.0831 30.9097C39.0465 30.8962 39.0068 30.8931 38.9685 30.9008C38.9302 30.9084 38.8949 30.9266 38.8667 30.953L37.3253 32.2964C37.2855 32.331 37.2281 32.3787 37.1839 32.3744C36.9101 32.3267 36.6363 32.266 36.3536 32.2097C36.4861 31.5987 36.6098 31.0007 36.7423 30.3897L35.4173 30.1514C35.1434 31.6854 34.8696 33.1847 34.6002 34.7144L35.7706 34.9224C35.8943 34.333 36.0135 33.7567 36.1328 33.189L36.7202 33.306C36.761 33.3111 36.7995 33.3277 36.8309 33.3539C36.8622 33.3801 36.8852 33.4146 36.8968 33.4534C37.0558 33.8607 37.2104 34.268 37.4003 34.6624C37.5356 34.9863 37.7703 35.2609 38.0718 35.4481C38.3733 35.6352 38.7268 35.7256 39.0831 35.7067C39.3437 35.7067 39.3437 35.7067 39.3878 35.4597C39.432 35.2127 39.4541 35.0264 39.485 34.8097C39.4616 34.8064 39.4378 34.8064 39.4143 34.8097C39.1848 34.8307 38.9551 34.7712 38.7659 34.642C38.5768 34.5127 38.4403 34.3219 38.3808 34.1034C38.2704 33.813 38.16 33.5184 38.0408 33.2367C38.0313 33.2217 38.0251 33.205 38.0225 33.1876C38.0198 33.1702 38.0208 33.1525 38.0253 33.1355C38.0299 33.1185 38.0379 33.1025 38.0489 33.0887C38.0599 33.0748 38.0737 33.0632 38.0893 33.0547L40.1078 31.4904C40.1693 31.4298 40.2241 31.363 40.2712 31.291L40.2888 31.265ZM28.9203 34.1597L30.0333 34.2334C30.0583 34.228 30.0819 34.2175 30.1024 34.2026C30.123 34.1876 30.1401 34.1686 30.1526 34.1467C30.2542 33.943 30.3513 33.7394 30.4397 33.5357C30.4511 33.4939 30.4788 33.4582 30.5168 33.4363C30.5548 33.4145 30.6001 33.4081 30.6428 33.4187C31.2568 33.4794 31.8707 33.527 32.4846 33.592C32.5243 33.592 32.5729 33.6527 32.5818 33.6917C32.6392 33.8954 32.6922 34.099 32.7363 34.307C32.7363 34.4414 32.8114 34.5107 32.9616 34.502C33.0597 34.5065 33.1573 34.5195 33.2531 34.541L33.973 34.6364C33.9244 34.4197 33.8847 34.2247 33.8317 34.0297C33.4695 32.669 33.0985 31.3084 32.7363 29.9477C32.7319 29.9033 32.7101 29.8622 32.6755 29.8332C32.6409 29.8041 32.5963 29.7892 32.5508 29.7917C32.1092 29.757 31.6675 29.7137 31.2258 29.666C31.1198 29.666 31.0933 29.7137 31.0624 29.783C30.4735 30.9646 29.8846 32.1505 29.2958 33.3407C29.1588 33.6094 29.044 33.891 28.9115 34.1814L28.9203 34.1597ZM43.1243 31.3387C43.1243 31.3864 43.0934 31.4254 43.0846 31.4644C42.6429 32.929 42.2454 34.398 41.817 35.8584C41.6889 36.2917 41.5432 36.725 41.3753 37.1584C41.2958 37.3924 41.1854 37.4357 40.9823 37.3534C40.0025 36.9625 38.9842 36.6721 37.9436 36.4867C37.8575 36.4691 37.7705 36.4561 37.683 36.4477L37.4489 36.4C38.9026 36.8037 40.3033 37.3723 41.6227 38.0944C41.764 37.6264 41.9098 37.1714 42.0643 36.7164C42.5325 35.1333 42.9992 33.5444 43.4644 31.9497C43.5065 31.8237 43.4979 31.6867 43.4405 31.5666C43.383 31.4466 43.281 31.3527 43.1553 31.304L43.1243 31.3387ZM11.7969 38.9004C11.8891 38.8306 11.985 38.7655 12.084 38.7054C12.1008 38.698 12.1159 38.6873 12.1282 38.674C12.1406 38.6606 12.15 38.6448 12.1558 38.6277C12.1616 38.6106 12.1637 38.5925 12.162 38.5745C12.1603 38.5565 12.1548 38.5391 12.1458 38.5234C11.8808 37.778 11.6114 37.0327 11.3641 36.283C11.0549 35.36 10.759 34.437 10.4808 33.5054C10.4093 33.2969 10.3991 33.0729 10.4515 32.8591C10.5038 32.6453 10.6165 32.4502 10.7767 32.2964C10.9385 32.1181 11.1174 31.9555 11.3111 31.811C12.0282 31.2861 12.8198 30.8671 13.6608 30.5674C13.7579 30.5327 13.8551 30.4894 13.9478 30.4504V30.407C13.6873 30.4894 13.4267 30.5544 13.1749 30.6454C12.1639 30.9869 11.2349 31.5281 10.4454 32.2357C10.2793 32.3535 10.1475 32.5118 10.063 32.695C9.97858 32.8782 9.94444 33.0799 9.964 33.28C9.99161 33.4619 10.0329 33.6415 10.0877 33.8174L11.2978 37.3794C11.4701 37.882 11.6468 38.3847 11.8234 38.9004" fill="white"/>
<path d="M27.348 27.4951L29.2913 26.5287C32.3536 25.0207 35.4158 23.5012 38.478 21.9701C38.5596 21.929 38.6522 21.9138 38.743 21.9267C40.5309 22.2583 42.2749 22.7874 43.9414 23.5041C44.3831 23.7034 44.8248 23.9374 45.2664 24.1757C45.4297 24.2684 45.5784 24.3837 45.7081 24.5181C45.8583 24.6611 45.845 24.7997 45.6683 24.9211C45.5187 25.0236 45.3623 25.1162 45.2002 25.1984L38.9197 28.5264C38.8389 28.5703 38.7443 28.5826 38.6547 28.5611C37.6918 28.3747 36.7334 28.1754 35.7662 28.0194C34.9403 27.8894 34.1055 27.8027 33.2708 27.7204C32.5773 27.6554 31.8795 27.6077 31.1861 27.5774C30.3823 27.5384 29.574 27.5167 28.7702 27.5037C28.3285 27.5037 27.8868 27.5037 27.4452 27.5037H27.3745" fill="white"/>
<path d="M24.1901 36.3524L23.5188 36.66C20.9173 37.8344 18.3115 39 15.6483 40.0487C15.0255 40.2914 14.3851 40.482 13.7403 40.6857C13.2602 40.8245 12.7495 40.8245 12.2695 40.6857C12.152 40.6596 12.0425 40.6068 11.9497 40.5315C11.8568 40.4562 11.7833 40.3606 11.7351 40.2524C11.7143 40.2146 11.7077 40.1708 11.7166 40.1288C11.7255 40.0868 11.7493 40.0492 11.7837 40.0227C12.2642 39.5898 12.802 39.2225 13.3825 38.9307C15.1127 38.0234 16.9701 37.3722 18.8945 36.998C20.1047 36.7467 21.3237 36.5647 22.5515 36.426C23.0948 36.3654 23.638 36.3264 24.1813 36.2787C24.1786 36.2886 24.1786 36.2991 24.1813 36.309" fill="white"/>
<path d="M9.55766 27.599C9.41633 27.1657 9.26616 26.6717 9.116 26.182L9.32358 26.104C10.3838 25.7095 11.4698 25.3852 12.5742 25.1333C12.9819 25.0289 13.4034 24.9865 13.8242 25.0077C13.9072 25.0137 13.989 25.0312 14.0671 25.0597C14.2305 25.1203 14.2526 25.2113 14.1245 25.324C14.0449 25.3946 13.9538 25.4517 13.8551 25.493C13.4443 25.6663 13.0159 25.8093 12.614 25.9957C11.8102 26.3683 11.0152 26.7583 10.229 27.157C9.99671 27.2883 9.77254 27.433 9.55766 27.5903" fill="white"/>
<path d="M39.3967 40.9674C39.0345 40.755 38.6988 40.534 38.3455 40.3564C37.4906 39.9291 36.5838 39.6102 35.6469 39.4074C35.4084 39.351 35.1743 39.2904 34.9447 39.2124C34.8355 39.1732 34.7339 39.1161 34.6443 39.0434C34.5339 38.9567 34.5472 38.8787 34.6752 38.8137C34.9039 38.7033 35.1591 38.6568 35.4128 38.6794C35.986 38.7113 36.5567 38.7764 37.1221 38.8744C37.9657 39.0434 38.7916 39.2774 39.6263 39.4854C39.6579 39.4935 39.6889 39.5036 39.7191 39.5157C39.6131 40.001 39.5071 40.482 39.3967 40.9674Z" fill="white"/>
<path d="M44.2153 39.3554C44.011 39.3502 43.8128 39.2861 43.6456 39.1709C43.4783 39.0558 43.3494 38.8948 43.275 38.708C43.2007 38.5213 43.1841 38.3172 43.2275 38.1213C43.2708 37.9254 43.3721 37.7464 43.5187 37.6068C43.6653 37.4671 43.8507 37.373 44.0515 37.3363C44.2524 37.2995 44.4599 37.3218 44.6479 37.4002C44.8359 37.4787 44.9962 37.6098 45.1086 37.7772C45.221 37.9447 45.2805 38.1409 45.2797 38.3414C45.2779 38.4766 45.249 38.6102 45.1945 38.7344C45.14 38.8587 45.0611 38.9711 44.9622 39.0653C44.8633 39.1596 44.7464 39.2337 44.6182 39.2834C44.49 39.3332 44.3531 39.3577 44.2153 39.3554ZM45.0103 38.3414C45.005 38.1886 44.9539 38.0408 44.8633 37.9164C44.7727 37.7921 44.6467 37.6968 44.5011 37.6425C44.3555 37.5881 44.1968 37.5772 44.0449 37.6111C43.893 37.645 43.7547 37.7221 43.6473 37.8328C43.54 37.9436 43.4683 38.0829 43.4414 38.2335C43.4145 38.384 43.4335 38.539 43.4961 38.679C43.5586 38.8189 43.662 38.9377 43.793 39.0202C43.9241 39.1028 44.0772 39.1455 44.2329 39.143C44.3381 39.142 44.4419 39.1202 44.5384 39.079C44.6348 39.0379 44.7218 38.9781 44.7943 38.9034C44.8668 38.8286 44.9232 38.7404 44.9603 38.6439C44.9974 38.5473 45.0144 38.4445 45.0103 38.3414Z" fill="white"/>
<path d="M15.158 35.1L14.8577 34.164C15.264 34.0513 15.6703 33.9387 16.0722 33.8347C16.1594 33.8081 16.2505 33.7964 16.3417 33.8C16.4432 33.7974 16.5425 33.8291 16.6229 33.8899C16.7034 33.9506 16.76 34.0367 16.7833 34.1337C16.8109 34.224 16.8077 34.3207 16.7742 34.409C16.7408 34.4974 16.6788 34.5726 16.5978 34.6234C16.5374 34.6667 16.4703 34.7003 16.3991 34.723C16.0016 34.8443 15.6041 34.957 15.1889 35.0783" fill="white"/>
<path d="M14.575 33.267C14.5626 33.251 14.5522 33.2335 14.5441 33.215C14.4557 32.955 14.3718 32.695 14.2879 32.435V32.409C14.6589 32.3093 15.0211 32.188 15.3965 32.123C15.4705 32.1005 15.5494 32.099 15.6242 32.1187C15.699 32.1383 15.7666 32.1783 15.8192 32.234C15.8718 32.2898 15.9074 32.3589 15.9217 32.4336C15.9359 32.5082 15.9284 32.5853 15.9 32.656C15.8602 32.7561 15.787 32.8401 15.6924 32.8943C15.5516 32.9702 15.4037 33.0326 15.2507 33.0807C15.0432 33.15 14.8091 33.2063 14.6147 33.267" fill="white"/>
<path d="M19.9059 32.3354C19.8308 31.9454 19.7602 31.577 19.6851 31.1957C20.1267 31.1307 20.5419 31.0484 20.9615 31.005C21.0558 30.9894 21.1526 30.9973 21.2429 31.028C21.3333 31.0587 21.4143 31.1112 21.4786 31.1807C21.5428 31.2502 21.5882 31.3344 21.6105 31.4256C21.6328 31.5169 21.6314 31.6121 21.6063 31.7027C21.5906 31.7922 21.5489 31.8754 21.4863 31.9423C21.4236 32.0091 21.3426 32.0568 21.253 32.0797C20.8113 32.1794 20.3697 32.2487 19.928 32.3354" fill="white"/>
<path d="M32.3653 32.7037L30.8769 32.5694C31.1861 31.9887 31.4908 31.4254 31.7956 30.8621H31.8353C32.0076 31.4687 32.1842 32.0711 32.3653 32.6994" fill="white"/>
<path d="M44.7232 38.8483C44.4538 38.883 44.4537 38.883 44.3963 38.6707C44.3389 38.4583 44.3036 38.4453 44.0607 38.4843V38.8527H43.831V37.843C44.0386 37.843 44.2462 37.843 44.4538 37.843C44.508 37.8487 44.5586 37.8724 44.5972 37.9102C44.6358 37.9481 44.66 37.9978 44.6657 38.051C44.6878 38.1897 44.6657 38.2417 44.5244 38.337L44.7232 38.844V38.8483ZM44.0783 38.337C44.1867 38.2978 44.2928 38.253 44.3963 38.2027C44.3963 38.2027 44.3963 38.0987 44.3963 38.0683C44.3124 37.9687 44.1976 37.9904 44.0872 38.012L44.0783 38.337Z" fill="white"/>
</svg>
