<svg width="393" height="340" viewBox="0 0 393 340" fill="none" xmlns="http://www.w3.org/2000/svg">
<path d="M208.602 339.259C127.881 339.259 62.2114 274.157 62.2114 194.134C62.2114 114.111 127.881 49.0087 208.602 49.0087C289.323 49.0087 354.993 114.111 354.993 194.134C354.993 274.157 289.323 339.259 208.602 339.259ZM208.602 59.7587C133.861 59.7587 73.0552 120.039 73.0552 194.134C73.0552 268.228 133.861 328.509 208.602 328.509C283.343 328.509 344.149 268.228 344.149 194.134C344.149 120.039 283.343 59.7587 208.602 59.7587Z" fill="#3D200D"/>
<path d="M208.602 323.134C136.854 323.134 78.4771 265.261 78.4771 194.134C78.4771 123.006 136.854 65.1337 208.602 65.1337C280.35 65.1337 338.727 123.006 338.727 194.134C338.727 265.261 280.355 323.134 208.602 323.134ZM208.602 75.8837C142.829 75.8837 89.3208 128.93 89.3208 194.134C89.3208 259.338 142.829 312.384 208.602 312.384C274.375 312.384 327.883 259.338 327.883 194.134C327.883 128.93 274.375 75.8837 208.602 75.8837Z" fill="#3D200D"/>
<path d="M350.322 38.3662H-10.027C-13.629 38.3662 -16.5406 35.9636 -16.5406 32.9912C-16.5406 30.0189 -13.629 27.6162 -10.027 27.6162H350.322C353.924 27.6162 356.836 30.0189 356.836 32.9912C356.836 35.9636 353.924 38.3662 350.322 38.3662Z" fill="#3D200D"/>
<path d="M350.322 22.2412H-10.027C-13.629 22.2412 -16.5406 19.8386 -16.5406 16.8662C-16.5406 13.8939 -13.629 11.4912 -10.027 11.4912H350.322C353.924 11.4912 356.836 13.8939 356.836 16.8662C356.836 19.8386 353.924 22.2412 350.322 22.2412Z" fill="#3D200D"/>
<path d="M368.558 49.1162C355.101 49.1162 344.149 38.2641 344.149 24.9287C344.149 11.5934 355.101 0.741241 368.558 0.741241C382.01 0.741241 392.957 11.5934 392.957 24.9287C392.957 38.2641 382.015 49.1162 368.558 49.1162ZM368.558 11.4912C361.076 11.4912 354.993 17.5166 354.993 24.9287C354.993 32.3409 361.076 38.3662 368.558 38.3662C376.035 38.3662 382.113 32.3409 382.113 24.9287C382.113 17.5166 376.035 11.4912 368.558 11.4912Z" fill="#3D200D"/>
<path d="M111.106 98.5824C108.108 98.5824 105.684 96.1797 105.684 93.2074V32.9912C105.684 30.0189 108.108 27.6162 111.106 27.6162C114.104 27.6162 116.528 30.0189 116.528 32.9912V93.2074C116.528 96.1797 114.104 98.5824 111.106 98.5824Z" fill="#3D200D"/>
<path d="M306.315 98.7705C303.317 98.7705 300.893 96.3679 300.893 93.3955V32.9912C300.893 30.0189 303.317 27.6162 306.315 27.6162C309.313 27.6162 311.737 30.0189 311.737 32.9912V93.3955C311.737 96.3679 309.308 98.7705 306.315 98.7705Z" fill="#3D200D"/>
<path d="M290.039 85.4298C287.04 85.4298 284.617 83.0271 284.617 80.0547V32.9912C284.617 30.0189 287.04 27.6162 290.039 27.6162C293.037 27.6162 295.46 30.0189 295.46 32.9912V80.0547C295.46 83.0217 293.037 85.4298 290.039 85.4298Z" fill="#3D200D"/>
<path d="M127.382 85.4298C124.384 85.4298 121.96 83.0271 121.96 80.0547V32.9912C121.96 30.0189 124.384 27.6162 127.382 27.6162C130.381 27.6162 132.804 30.0189 132.804 32.9912V80.0547C132.804 83.0217 130.381 85.4298 127.382 85.4298Z" fill="#3D200D"/>
<circle cx="209" cy="194" r="120" fill="white"/>
<path d="M144.333 182.816C141.229 182.816 138.429 182.176 135.933 180.896C133.437 179.616 131.453 177.728 129.98 175.232C128.541 172.736 127.821 169.696 127.821 166.112C127.821 163.424 128.253 161.04 129.117 158.96C130.013 156.88 131.229 155.136 132.765 153.728C134.333 152.288 136.125 151.216 138.141 150.512C140.157 149.776 142.301 149.408 144.573 149.408C146.333 149.408 147.981 149.616 149.517 150.032C151.053 150.416 152.525 150.992 153.932 151.76L154.125 158.048H152.829L150.812 154.256C150.493 153.616 150.141 153.04 149.757 152.528C149.405 152.016 148.941 151.648 148.365 151.424C147.565 151.04 146.621 150.848 145.533 150.848C143.645 150.848 141.917 151.328 140.349 152.288C138.813 153.248 137.581 154.848 136.653 157.088C135.725 159.296 135.261 162.32 135.261 166.16C135.261 169.968 135.693 172.992 136.557 175.232C137.453 177.472 138.653 179.072 140.157 180.032C141.661 180.96 143.357 181.424 145.245 181.424C146.109 181.424 146.813 181.36 147.357 181.232C147.901 181.104 148.445 180.928 148.989 180.704C149.629 180.448 150.125 180.08 150.477 179.6C150.829 179.088 151.133 178.512 151.389 177.872L153.213 173.504H154.509L154.317 180.416C152.941 181.184 151.421 181.776 149.757 182.192C148.093 182.608 146.285 182.816 144.333 182.816ZM171.58 182.816C169.628 182.816 167.756 182.464 165.964 181.76C164.172 181.056 162.556 180.016 161.116 178.64C159.708 177.232 158.588 175.488 157.756 173.408C156.924 171.328 156.508 168.896 156.508 166.112C156.508 163.392 156.924 160.992 157.756 158.912C158.588 156.832 159.708 155.088 161.116 153.68C162.556 152.272 164.172 151.216 165.964 150.512C167.788 149.776 169.66 149.408 171.58 149.408C173.5 149.408 175.356 149.76 177.148 150.464C178.972 151.168 180.588 152.224 181.996 153.632C183.404 155.008 184.524 156.736 185.356 158.816C186.188 160.896 186.604 163.328 186.604 166.112C186.604 168.832 186.188 171.232 185.356 173.312C184.524 175.392 183.404 177.136 181.996 178.544C180.588 179.952 178.988 181.024 177.196 181.76C175.404 182.464 173.532 182.816 171.58 182.816ZM171.58 181.376C173.404 181.376 174.876 180.912 175.996 179.984C177.116 179.024 177.932 177.424 178.444 175.184C178.956 172.944 179.212 169.92 179.212 166.112C179.212 162.304 178.956 159.296 178.444 157.088C177.932 154.848 177.116 153.264 175.996 152.336C174.876 151.376 173.404 150.896 171.58 150.896C169.788 150.896 168.316 151.376 167.164 152.336C166.044 153.264 165.228 154.848 164.716 157.088C164.204 159.296 163.948 162.304 163.948 166.112C163.948 169.92 164.204 172.944 164.716 175.184C165.228 177.424 166.044 179.024 167.164 179.984C168.316 180.912 169.788 181.376 171.58 181.376ZM187.87 182V180.992L188.782 180.752C189.422 180.56 189.838 180.272 190.03 179.888C190.222 179.504 190.334 178.976 190.366 178.304C190.398 176.48 190.414 174.64 190.414 172.784C190.414 170.896 190.414 169.008 190.414 167.12V165.152C190.414 163.296 190.414 161.44 190.414 159.584C190.414 157.728 190.398 155.872 190.366 154.016C190.334 153.344 190.238 152.832 190.078 152.48C189.918 152.096 189.534 151.808 188.926 151.616L187.87 151.28V150.272H210.958L211.294 158.384H209.998L207.502 153.632C207.182 153.024 206.83 152.56 206.446 152.24C206.062 151.888 205.502 151.712 204.766 151.712H197.374C197.342 153.856 197.31 156.064 197.278 158.336C197.278 160.576 197.278 162.816 197.278 165.056H201.886C202.622 165.056 203.166 164.896 203.518 164.576C203.87 164.224 204.206 163.744 204.526 163.136L205.486 161.36H206.542V170.144H205.486L204.526 168.416C204.174 167.776 203.822 167.296 203.47 166.976C203.15 166.624 202.622 166.448 201.886 166.448H197.278C197.278 168.56 197.278 170.592 197.278 172.544C197.278 174.464 197.294 176.352 197.326 178.208C197.326 179.52 197.918 180.336 199.102 180.656L200.542 180.992V182H187.87ZM213.229 182V180.992L214.141 180.752C214.781 180.56 215.197 180.272 215.389 179.888C215.581 179.504 215.693 178.976 215.725 178.304C215.757 176.48 215.773 174.64 215.773 172.784C215.773 170.896 215.773 169.008 215.773 167.12V165.152C215.773 163.296 215.773 161.44 215.773 159.584C215.773 157.728 215.757 155.872 215.725 154.016C215.693 153.344 215.597 152.832 215.437 152.48C215.277 152.096 214.893 151.808 214.285 151.616L213.229 151.28V150.272H236.317L236.653 158.384H235.357L232.861 153.632C232.541 153.024 232.189 152.56 231.805 152.24C231.421 151.888 230.861 151.712 230.125 151.712H222.733C222.701 153.856 222.669 156.064 222.637 158.336C222.637 160.576 222.637 162.816 222.637 165.056H227.245C227.981 165.056 228.525 164.896 228.877 164.576C229.229 164.224 229.565 163.744 229.885 163.136L230.845 161.36H231.901V170.144H230.845L229.885 168.416C229.533 167.776 229.181 167.296 228.829 166.976C228.509 166.624 227.981 166.448 227.245 166.448H222.637C222.637 168.56 222.637 170.592 222.637 172.544C222.637 174.464 222.653 176.352 222.685 178.208C222.685 179.52 223.277 180.336 224.461 180.656L225.901 180.992V182H213.229ZM238.588 182V180.992L239.548 180.656C240.124 180.496 240.524 180.224 240.748 179.84C240.972 179.424 241.1 178.864 241.132 178.16V154.016C241.1 153.344 240.988 152.832 240.796 152.48C240.604 152.096 240.204 151.808 239.596 151.616L238.588 151.28V150.272H261.436L261.772 157.952H260.428L258.508 153.632C258.252 153.024 257.964 152.56 257.644 152.24C257.324 151.888 256.844 151.712 256.204 151.712H248.044C248.012 153.696 247.996 155.744 247.996 157.856C247.996 159.936 247.996 162.288 247.996 164.912H252.748C253.388 164.912 253.868 164.752 254.188 164.432C254.54 164.08 254.86 163.616 255.148 163.04L255.964 161.216H257.02V170.096H255.964L255.1 168.272C254.844 167.696 254.556 167.232 254.236 166.88C253.916 166.528 253.436 166.352 252.796 166.352H247.996C247.996 168.656 247.996 170.64 247.996 172.304C247.996 173.968 247.996 175.456 247.996 176.768C248.028 178.048 248.044 179.312 248.044 180.56H257.26C257.9 180.56 258.396 180.4 258.748 180.08C259.1 179.728 259.388 179.248 259.612 178.64L261.388 174.32H262.732L262.396 182H238.588ZM265.167 182V180.992L266.127 180.656C266.703 180.496 267.103 180.224 267.327 179.84C267.551 179.424 267.679 178.864 267.711 178.16V154.016C267.679 153.344 267.567 152.832 267.375 152.48C267.183 152.096 266.783 151.808 266.175 151.616L265.167 151.28V150.272H288.015L288.351 157.952H287.007L285.087 153.632C284.831 153.024 284.543 152.56 284.223 152.24C283.903 151.888 283.423 151.712 282.783 151.712H274.623C274.591 153.696 274.575 155.744 274.575 157.856C274.575 159.936 274.575 162.288 274.575 164.912H279.327C279.967 164.912 280.447 164.752 280.767 164.432C281.119 164.08 281.439 163.616 281.727 163.04L282.543 161.216H283.599V170.096H282.543L281.679 168.272C281.423 167.696 281.135 167.232 280.815 166.88C280.495 166.528 280.015 166.352 279.375 166.352H274.575C274.575 168.656 274.575 170.64 274.575 172.304C274.575 173.968 274.575 175.456 274.575 176.768C274.607 178.048 274.623 179.312 274.623 180.56H283.839C284.479 180.56 284.975 180.4 285.327 180.08C285.679 179.728 285.967 179.248 286.191 178.64L287.967 174.32H289.311L288.975 182H265.167ZM155.226 224.816C153.466 224.816 151.674 224.592 149.85 224.144C148.058 223.728 146.554 223.168 145.338 222.464L145.626 215.792H147.018L148.506 219.104C148.954 220.032 149.418 220.8 149.898 221.408C150.378 222.016 151.018 222.48 151.818 222.8C152.362 223.024 152.874 223.184 153.354 223.28C153.866 223.344 154.426 223.376 155.034 223.376C156.986 223.376 158.522 222.88 159.642 221.888C160.794 220.864 161.37 219.52 161.37 217.856C161.37 216.352 160.97 215.168 160.17 214.304C159.402 213.44 158.154 212.608 156.426 211.808L154.458 210.944C151.77 209.76 149.642 208.384 148.074 206.816C146.538 205.248 145.77 203.168 145.77 200.576C145.77 198.656 146.25 197.024 147.21 195.68C148.202 194.304 149.562 193.248 151.29 192.512C153.018 191.776 155.034 191.408 157.338 191.408C159.034 191.408 160.618 191.632 162.09 192.08C163.594 192.528 164.906 193.136 166.026 193.904L165.69 199.856H164.298L162.522 196.256C162.01 195.2 161.514 194.448 161.034 194C160.586 193.52 160.026 193.216 159.354 193.088C158.97 193.024 158.634 192.976 158.346 192.944C158.09 192.912 157.738 192.896 157.29 192.896C155.722 192.896 154.362 193.36 153.21 194.288C152.09 195.184 151.53 196.432 151.53 198.032C151.53 199.568 151.962 200.816 152.826 201.776C153.69 202.736 154.938 203.584 156.57 204.32L158.73 205.232C161.834 206.576 164.058 208.016 165.402 209.552C166.746 211.056 167.418 212.992 167.418 215.36C167.418 218.176 166.346 220.464 164.202 222.224C162.09 223.952 159.098 224.816 155.226 224.816ZM169.659 224V222.992L170.571 222.704C171.211 222.48 171.643 222.192 171.867 221.84C172.091 221.456 172.203 220.944 172.203 220.304V196.016C172.203 195.376 172.091 194.864 171.867 194.48C171.675 194.096 171.259 193.792 170.619 193.568L169.659 193.28V192.272H181.515V193.28L180.699 193.52C180.091 193.744 179.675 194.048 179.451 194.432C179.227 194.784 179.115 195.28 179.115 195.92V206.96H191.067V195.92C191.067 195.28 190.955 194.784 190.731 194.432C190.507 194.048 190.075 193.744 189.435 193.52L188.667 193.28V192.272H200.523V193.28L199.611 193.568C199.003 193.792 198.571 194.096 198.315 194.48C198.091 194.832 197.979 195.328 197.979 195.968V220.304C197.979 220.944 198.091 221.456 198.315 221.84C198.571 222.192 199.003 222.48 199.611 222.704L200.523 222.992V224H188.667V222.992L189.435 222.752C190.075 222.528 190.507 222.24 190.731 221.888C190.955 221.504 191.067 220.992 191.067 220.352V208.4H179.115V220.352C179.115 220.992 179.227 221.504 179.451 221.888C179.707 222.24 180.139 222.528 180.747 222.752L181.515 222.992V224H169.659ZM216.885 224.816C214.933 224.816 213.061 224.464 211.269 223.76C209.477 223.056 207.861 222.016 206.421 220.64C205.013 219.232 203.893 217.488 203.061 215.408C202.229 213.328 201.813 210.896 201.813 208.112C201.813 205.392 202.229 202.992 203.061 200.912C203.893 198.832 205.013 197.088 206.421 195.68C207.861 194.272 209.477 193.216 211.269 192.512C213.093 191.776 214.965 191.408 216.885 191.408C218.805 191.408 220.661 191.76 222.453 192.464C224.277 193.168 225.893 194.224 227.301 195.632C228.709 197.008 229.829 198.736 230.661 200.816C231.493 202.896 231.909 205.328 231.909 208.112C231.909 210.832 231.493 213.232 230.661 215.312C229.829 217.392 228.709 219.136 227.301 220.544C225.893 221.952 224.293 223.024 222.501 223.76C220.709 224.464 218.837 224.816 216.885 224.816ZM216.885 223.376C218.709 223.376 220.181 222.912 221.301 221.984C222.421 221.024 223.237 219.424 223.749 217.184C224.261 214.944 224.517 211.92 224.517 208.112C224.517 204.304 224.261 201.296 223.749 199.088C223.237 196.848 222.421 195.264 221.301 194.336C220.181 193.376 218.709 192.896 216.885 192.896C215.093 192.896 213.621 193.376 212.469 194.336C211.349 195.264 210.533 196.848 210.021 199.088C209.509 201.296 209.253 204.304 209.253 208.112C209.253 211.92 209.509 214.944 210.021 217.184C210.533 219.424 211.349 221.024 212.469 221.984C213.621 222.912 215.093 223.376 216.885 223.376ZM233.174 224V222.992L234.134 222.752C234.774 222.56 235.19 222.272 235.382 221.888C235.574 221.504 235.67 220.976 235.67 220.304C235.702 218.48 235.718 216.64 235.718 214.784C235.718 212.896 235.718 211.008 235.718 209.12V207.152C235.718 205.296 235.718 203.44 235.718 201.584C235.718 199.728 235.702 197.872 235.67 196.016C235.67 195.344 235.558 194.832 235.334 194.48C235.142 194.096 234.726 193.792 234.086 193.568L233.174 193.28V192.272H244.742C249.414 192.272 252.806 193.152 254.918 194.912C257.062 196.64 258.134 198.928 258.134 201.776C258.134 203.568 257.686 205.232 256.79 206.768C255.926 208.272 254.486 209.472 252.47 210.368C250.454 211.264 247.734 211.712 244.31 211.712H242.582C242.582 213.056 242.582 214.448 242.582 215.888C242.582 217.296 242.598 218.736 242.63 220.208C242.63 221.52 243.222 222.32 244.406 222.608L245.846 222.992V224H233.174ZM242.582 210.32H244.598C246.198 210.32 247.494 210.08 248.486 209.6C249.51 209.088 250.262 208.224 250.742 207.008C251.254 205.792 251.51 204.112 251.51 201.968C251.51 199.824 251.238 198.16 250.694 196.976C250.182 195.76 249.398 194.912 248.342 194.432C247.286 193.92 245.974 193.664 244.406 193.664H242.63C242.598 195.872 242.582 198.112 242.582 200.384C242.582 202.624 242.582 204.88 242.582 207.152V210.32ZM270.539 224.816C268.779 224.816 266.987 224.592 265.163 224.144C263.371 223.728 261.867 223.168 260.651 222.464L260.939 215.792H262.331L263.819 219.104C264.267 220.032 264.731 220.8 265.211 221.408C265.691 222.016 266.331 222.48 267.131 222.8C267.675 223.024 268.187 223.184 268.667 223.28C269.179 223.344 269.739 223.376 270.347 223.376C272.299 223.376 273.835 222.88 274.955 221.888C276.107 220.864 276.683 219.52 276.683 217.856C276.683 216.352 276.283 215.168 275.483 214.304C274.715 213.44 273.467 212.608 271.739 211.808L269.771 210.944C267.083 209.76 264.955 208.384 263.387 206.816C261.851 205.248 261.083 203.168 261.083 200.576C261.083 198.656 261.563 197.024 262.523 195.68C263.515 194.304 264.875 193.248 266.603 192.512C268.331 191.776 270.347 191.408 272.651 191.408C274.347 191.408 275.931 191.632 277.403 192.08C278.907 192.528 280.219 193.136 281.339 193.904L281.003 199.856H279.611L277.835 196.256C277.323 195.2 276.827 194.448 276.347 194C275.899 193.52 275.339 193.216 274.667 193.088C274.283 193.024 273.947 192.976 273.659 192.944C273.403 192.912 273.051 192.896 272.603 192.896C271.035 192.896 269.675 193.36 268.523 194.288C267.403 195.184 266.843 196.432 266.843 198.032C266.843 199.568 267.275 200.816 268.139 201.776C269.003 202.736 270.251 203.584 271.883 204.32L274.043 205.232C277.147 206.576 279.371 208.016 280.715 209.552C282.059 211.056 282.731 212.992 282.731 215.36C282.731 218.176 281.659 220.464 279.515 222.224C277.403 223.952 274.411 224.816 270.539 224.816Z" fill="#3D200D"/>
<path d="M159.234 257.699L159.224 256.727L168.295 256.627L168.306 257.599L159.234 257.699ZM170.634 266.214L170.63 265.854L171.347 265.558C171.825 265.385 172.135 265.153 172.275 264.864C172.44 264.574 172.52 264.189 172.515 263.709L172.307 244.918C172.302 244.438 172.226 244.055 172.078 243.769C171.931 243.482 171.605 243.258 171.099 243.095L170.376 242.815L170.372 242.455L179.623 242.353L179.627 242.713L178.91 243.009C178.432 243.182 178.111 243.414 177.946 243.704C177.805 243.993 177.738 244.378 177.743 244.858L177.95 263.649C177.956 264.129 178.032 264.512 178.179 264.799C178.35 265.061 178.676 265.285 179.158 265.472L179.882 265.752L179.886 266.112L170.634 266.214ZM181.39 266.095L181.386 265.735L181.888 265.586C182.725 265.336 183.139 264.744 183.128 263.808L183.004 252.541C182.998 252.013 182.91 251.63 182.739 251.391C182.568 251.129 182.242 250.953 181.761 250.862L181.22 250.724L181.216 250.364L187.349 248.208L187.712 248.564L188.024 250.721C188.856 249.968 189.797 249.345 190.848 248.854C191.898 248.362 192.94 248.111 193.972 248.099C195.556 248.082 196.772 248.5 197.622 249.355C198.495 250.209 198.942 251.525 198.961 253.3L199.076 263.668C199.086 264.604 199.549 265.187 200.463 265.417L200.788 265.521L200.792 265.881L192.297 265.975L192.293 265.615L192.759 265.466C193.596 265.192 194.01 264.6 194 263.688L193.873 252.205C193.856 250.669 193.08 249.909 191.544 249.926C190.488 249.938 189.342 250.478 188.105 251.548L188.241 263.787C188.251 264.723 188.677 265.307 189.52 265.537L189.845 265.642L189.849 266.002L181.39 266.095ZM209.838 266.321C208.422 266.337 207.147 266.039 206.012 265.427C204.877 264.792 203.966 263.818 203.28 262.505C202.617 261.169 202.274 259.456 202.251 257.368C202.228 255.256 202.58 253.512 203.309 252.136C204.038 250.736 205.01 249.693 206.227 249.008C207.443 248.298 208.771 247.936 210.211 247.92C211.051 247.911 211.856 247.986 212.626 248.145C213.396 248.305 214.082 248.549 214.686 248.879L214.634 244.199C214.629 243.695 214.541 243.324 214.37 243.086C214.223 242.847 213.898 242.683 213.393 242.592L212.707 242.456L212.703 242.096L219.237 240.44L219.637 240.759L219.548 245.801L219.743 263.404C219.748 263.884 219.836 264.279 220.008 264.589C220.179 264.875 220.493 265.075 220.951 265.19L221.276 265.295L221.28 265.655L215.128 266.119L214.79 264.826C214.147 265.266 213.407 265.622 212.57 265.895C211.757 266.168 210.846 266.31 209.838 266.321ZM211.912 264.966C212.919 264.955 213.84 264.645 214.673 264.036L214.516 249.744C213.621 249.178 212.706 248.9 211.77 248.911C210.618 248.923 209.642 249.606 208.841 250.959C208.039 252.288 207.654 254.381 207.686 257.236C207.717 260.092 208.124 262.104 208.905 263.271C209.685 264.415 210.688 264.98 211.912 264.966ZM231.71 247.683C233.27 247.665 234.605 247.975 235.716 248.61C236.827 249.222 237.677 250.077 238.265 251.174C238.877 252.248 239.19 253.48 239.206 254.872C239.209 255.136 239.2 255.412 239.179 255.701C239.158 255.965 239.112 256.205 239.043 256.422L228.315 256.541C228.368 259.132 228.845 260.999 229.745 262.141C230.67 263.259 232.02 263.808 233.796 263.788C234.996 263.775 235.965 263.573 236.705 263.18C237.445 262.788 238.135 262.217 238.774 261.465L239.138 261.785C238.409 263.114 237.424 264.156 236.184 264.914C234.969 265.672 233.497 266.06 231.769 266.079C230.065 266.098 228.549 265.755 227.221 265.049C225.893 264.32 224.849 263.275 224.09 261.916C223.331 260.556 222.941 258.928 222.92 257.032C222.899 255.064 223.312 253.392 224.161 252.014C225.01 250.613 226.102 249.545 227.438 248.81C228.798 248.075 230.222 247.699 231.71 247.683ZM231.61 248.404C230.914 248.411 230.316 248.634 229.817 249.072C229.342 249.485 228.966 250.233 228.69 251.316C228.437 252.375 228.31 253.876 228.307 255.821L234.463 255.753C234.674 253.134 234.557 251.251 234.113 250.104C233.668 248.957 232.834 248.39 231.61 248.404ZM240.654 265.441L240.65 265.081L241.583 264.855C242.134 264.729 242.576 264.544 242.909 264.3C243.266 264.032 243.598 263.668 243.905 263.209L247.731 257.586L242.75 249.865C242.506 249.507 242.287 249.234 242.093 249.044C241.898 248.854 241.597 248.713 241.188 248.622L240.682 248.484L240.678 248.124L249.822 248.023L249.826 248.383L249.215 248.533C248.378 248.807 248.216 249.336 248.729 250.123L251.731 254.662L254.886 250.199C255.146 249.788 255.262 249.451 255.235 249.187C255.232 248.899 255.002 248.697 254.544 248.583L253.642 248.34L253.638 247.98L258.893 247.922L258.897 248.282L258.036 248.508C257.509 248.658 257.103 248.854 256.818 249.097C256.532 249.317 256.224 249.668 255.894 250.152L252.17 255.305L257.187 262.918C257.797 263.848 258.608 264.439 259.618 264.691L260.196 264.865L260.2 265.225L250.265 265.335L250.261 264.975L250.871 264.824C251.278 264.724 251.528 264.529 251.621 264.24C251.737 263.926 251.674 263.579 251.429 263.198L248.207 258.301L244.842 263.307C244.558 263.694 244.466 264.031 244.565 264.318C244.688 264.58 244.942 264.758 245.327 264.849L246.049 265.021L246.053 265.381L240.654 265.441ZM260.654 256.58L260.643 255.608L269.715 255.507L269.725 256.479L260.654 256.58Z" fill="#8E4D22"/>
</svg>
